Commissioner-HairFlairItalic.ufo
<glyph name="percent" format="2">
  <advance width="834"/>
  <unicode hex="0025"/>
  <outline>
    <contour>
      <point x="144" y="0" type="curve"/>
      <point x="187" y="0" type="line"/>
      <point x="241" y="74"/>
      <point x="290" y="138"/>
      <point x="360" y="229" type="curve"/>
      <point x="552" y="479" type="line"/>
      <point x="625" y="574"/>
      <point x="673" y="636"/>
      <point x="735" y="713" type="curve"/>
      <point x="692" y="713" type="line"/>
      <point x="636" y="636"/>
      <point x="588" y="574"/>
      <point x="515" y="479" type="curve"/>
      <point x="323" y="229" type="line"/>
      <point x="253" y="138"/>
      <point x="204" y="74"/>
    </contour>
    <contour>
      <point x="269" y="378" type="curve" smooth="yes"/>
      <point x="359" y="378"/>
      <point x="431" y="428"/>
      <point x="453" y="531" type="curve" smooth="yes"/>
      <point x="474" y="631"/>
      <point x="403" y="725"/>
      <point x="294" y="725" type="curve" smooth="yes"/>
      <point x="200" y="725"/>
      <point x="129" y="668"/>
      <point x="107" y="568" type="curve" smooth="yes"/>
      <point x="85" y="466"/>
      <point x="154" y="378"/>
    </contour>
    <contour>
      <point x="270" y="409" type="curve"/>
      <point x="169" y="411"/>
      <point x="120" y="476"/>
      <point x="138" y="565" type="curve" smooth="yes"/>
      <point x="155" y="650"/>
      <point x="210" y="692"/>
      <point x="293" y="694" type="curve"/>
      <point x="388" y="692"/>
      <point x="440" y="621"/>
      <point x="422" y="535" type="curve" smooth="yes"/>
      <point x="404" y="447"/>
      <point x="353" y="411"/>
    </contour>
    <contour>
      <point x="589" y="-9" type="curve" smooth="yes"/>
      <point x="679" y="-9"/>
      <point x="751" y="41"/>
      <point x="773" y="144" type="curve" smooth="yes"/>
      <point x="794" y="244"/>
      <point x="723" y="338"/>
      <point x="614" y="338" type="curve" smooth="yes"/>
      <point x="520" y="338"/>
      <point x="449" y="281"/>
      <point x="427" y="181" type="curve" smooth="yes"/>
      <point x="405" y="79"/>
      <point x="474" y="-9"/>
    </contour>
    <contour>
      <point x="590" y="22" type="curve"/>
      <point x="489" y="24"/>
      <point x="440" y="89"/>
      <point x="458" y="178" type="curve" smooth="yes"/>
      <point x="475" y="263"/>
      <point x="530" y="305"/>
      <point x="613" y="307" type="curve"/>
      <point x="708" y="305"/>
      <point x="760" y="234"/>
      <point x="742" y="148" type="curve" smooth="yes"/>
      <point x="724" y="60"/>
      <point x="673" y="24"/>
    </contour>
  </outline>
</glyph>
<glyph name="parenleft" format="2">
  <advance width="364"/>
  <unicode hex="0028"/>
  <outline>
    <contour>
      <point x="211" y="-112" type="curve"/>
      <point x="246" y="-101" type="line"/>
      <point x="152" y="21"/>
      <point x="84" y="159"/>
      <point x="123" y="341" type="curve" smooth="yes"/>
      <point x="162" y="524"/>
      <point x="284" y="644"/>
      <point x="422" y="743" type="curve"/>
      <point x="388" y="760" type="line"/>
      <point x="252" y="654"/>
      <point x="131" y="532"/>
      <point x="91" y="344" type="curve" smooth="yes"/>
      <point x="51" y="157"/>
      <point x="122" y="16"/>
    </contour>
  </outline>
</glyph>
<glyph name="period" format="2">
  <advance width="214"/>
  <unicode hex="002E"/>
  <outline>
    <contour>
      <point x="59" y="-9" type="curve" smooth="yes"/>
      <point x="86" y="-9"/>
      <point x="101" y="2"/>
      <point x="108" y="35" type="curve" smooth="yes"/>
      <point x="113" y="64"/>
      <point x="95" y="81"/>
      <point x="66" y="81" type="curve" smooth="yes"/>
      <point x="40" y="81"/>
      <point x="24" y="71"/>
      <point x="19" y="45" type="curve" smooth="yes"/>
      <point x="12" y="13"/>
      <point x="29" y="-9"/>
    </contour>
  </outline>
</glyph>
<glyph name="three" format="2">
  <advance width="561"/>
  <unicode hex="0033"/>
  <outline>
    <contour>
      <point x="239" y="-9" type="curve" smooth="yes"/>
      <point x="386" y="-9"/>
      <point x="463" y="53"/>
      <point x="485" y="157" type="curve" smooth="yes"/>
      <point x="508" y="270"/>
      <point x="426" y="342"/>
      <point x="366" y="357" type="curve"/>
      <point x="367" y="363" type="line"/>
      <point x="448" y="378"/>
      <point x="514" y="423"/>
      <point x="532" y="507" type="curve" smooth="yes"/>
      <point x="556" y="615"/>
      <point x="477" y="696"/>
      <point x="358" y="696" type="curve" smooth="yes"/>
      <point x="294" y="696"/>
      <point x="200" y="657"/>
      <point x="148" y="635" type="curve"/>
      <point x="147" y="595" type="line"/>
      <point x="239" y="643"/>
      <point x="325" y="664"/>
      <point x="358" y="664" type="curve" smooth="yes"/>
      <point x="460" y="663"/>
      <point x="521" y="606"/>
      <point x="501" y="511" type="curve" smooth="yes"/>
      <point x="483" y="426"/>
      <point x="407" y="378"/>
      <point x="254" y="378" type="curve"/>
      <point x="238" y="378"/>
      <point x="220" y="378"/>
      <point x="204" y="379" type="curve"/>
      <point x="197" y="347" type="line"/>
      <point x="213" y="348"/>
      <point x="232" y="348"/>
      <point x="248" y="348" type="curve"/>
      <point x="402" y="348"/>
      <point x="478" y="272"/>
      <point x="455" y="163" type="curve" smooth="yes"/>
      <point x="436" y="73"/>
      <point x="373" y="24"/>
      <point x="239" y="23" type="curve"/>
      <point x="173" y="23"/>
      <point x="101" y="51"/>
      <point x="23" y="94" type="curve"/>
      <point x="10" y="60" type="line"/>
      <point x="64" y="34"/>
      <point x="147" y="-9"/>
    </contour>
  </outline>
</glyph>
<glyph name="four" format="2">
  <advance width="589"/>
  <unicode hex="0034"/>
  <outline>
    <contour>
      <point x="327" y="0" type="curve"/>
      <point x="362" y="0" type="line"/>
      <point x="373" y="61"/>
      <point x="383" y="109"/>
      <point x="398" y="180" type="curve"/>
      <point x="454" y="443" type="line"/>
      <point x="471" y="522"/>
      <point x="487" y="601"/>
      <point x="508" y="684" type="curve"/>
      <point x="471" y="684" type="line"/>
      <point x="431" y="638"/>
      <point x="387" y="589"/>
      <point x="344" y="542" type="curve"/>
      <point x="224" y="412" type="line"/>
      <point x="163" y="346"/>
      <point x="81" y="257"/>
      <point x="24" y="197" type="curve"/>
      <point x="19" y="169" type="line"/>
      <point x="388" y="169" type="line"/>
      <point x="435" y="169"/>
      <point x="504" y="169"/>
      <point x="546" y="167" type="curve"/>
      <point x="553" y="201" type="line"/>
      <point x="510" y="199"/>
      <point x="441" y="199"/>
      <point x="394" y="199" type="curve"/>
      <point x="381" y="199" type="line"/>
      <point x="53" y="199" type="line"/>
      <point x="55" y="182" type="line"/>
      <point x="97" y="230"/>
      <point x="139" y="277"/>
      <point x="183" y="325" type="curve"/>
      <point x="349" y="505" type="line"/>
      <point x="399" y="560"/>
      <point x="450" y="615"/>
      <point x="500" y="668" type="curve"/>
      <point x="469" y="663" type="line"/>
      <point x="455" y="590"/>
      <point x="440" y="516"/>
      <point x="424" y="443" type="curve"/>
      <point x="371" y="193" type="line"/>
      <point x="368" y="180" type="line"/>
      <point x="353" y="109"/>
      <point x="342" y="61"/>
    </contour>
  </outline>
</glyph>
<glyph name="six" format="2">
  <advance width="599"/>
  <unicode hex="0036"/>
  <outline>
    <contour>
      <point x="286" y="-9" type="curve" smooth="yes"/>
      <point x="425" y="-9"/>
      <point x="508" y="82"/>
      <point x="532" y="199" type="curve" smooth="yes"/>
      <point x="558" y="324"/>
      <point x="487" y="435"/>
      <point x="345" y="435" type="curve" smooth="yes"/>
      <point x="269" y="435"/>
      <point x="175" y="386"/>
      <point x="125" y="346" type="curve"/>
      <point x="113" y="347" type="line"/>
      <point x="108" y="333"/>
      <point x="104" y="315"/>
      <point x="102" y="294" type="curve"/>
      <point x="177" y="359"/>
      <point x="273" y="402"/>
      <point x="344" y="403" type="curve"/>
      <point x="478" y="402"/>
      <point x="523" y="303"/>
      <point x="502" y="204" type="curve" smooth="yes"/>
      <point x="481" y="105"/>
      <point x="414" y="25"/>
      <point x="285" y="23" type="curve"/>
      <point x="134" y="25"/>
      <point x="75" y="148"/>
      <point x="116" y="341" type="curve" smooth="yes"/>
      <point x="164" y="566"/>
      <point x="252" y="662"/>
      <point x="401" y="664" type="curve"/>
      <point x="428" y="664"/>
      <point x="496" y="648"/>
      <point x="570" y="609" type="curve"/>
      <point x="582" y="643" type="line"/>
      <point x="538" y="662"/>
      <point x="456" y="696"/>
      <point x="401" y="696" type="curve" smooth="yes"/>
      <point x="233" y="696"/>
      <point x="134" y="578"/>
      <point x="85" y="346" type="curve" smooth="yes"/>
      <point x="40" y="133"/>
      <point x="121" y="-9"/>
    </contour>
  </outline>
</glyph>
<glyph name="seven" format="2">
  <advance width="511"/>
  <unicode hex="0037"/>
  <outline>
    <contour>
      <point x="69" y="0" type="curve"/>
      <point x="111" y="0" type="line"/>
      <point x="166" y="86"/>
      <point x="224" y="173"/>
      <point x="281" y="257" type="curve"/>
      <point x="380" y="403" type="line"/>
      <point x="440" y="492"/>
      <point x="495" y="574"/>
      <point x="552" y="658" type="curve"/>
      <point x="558" y="684" type="line"/>
      <point x="117" y="684" type="line"/>
      <point x="110" y="651" type="line"/>
      <point x="200" y="654"/>
      <point x="289" y="654"/>
      <point x="377" y="654" type="curve"/>
      <point x="526" y="654" type="line"/>
      <point x="518" y="664" type="line"/>
      <point x="482" y="610"/>
      <point x="447" y="557"/>
      <point x="411" y="503" type="curve"/>
      <point x="263" y="284" type="line"/>
      <point x="200" y="191"/>
      <point x="135" y="95"/>
    </contour>
  </outline>
</glyph>
<glyph name="at" format="2">
  <advance width="875"/>
  <unicode hex="0040"/>
  <outline>
    <contour>
      <point x="472" y="-122" type="curve" smooth="yes"/>
      <point x="556" y="-122"/>
      <point x="673" y="-82"/>
      <point x="754" y="-46" type="curve"/>
      <point x="754" y="-8" type="line"/>
      <point x="653" y="-57"/>
      <point x="543" y="-88"/>
      <point x="472" y="-91" type="curve"/>
      <point x="185" y="-88"/>
      <point x="57" y="117"/>
      <point x="102" y="333" type="curve" smooth="yes"/>
      <point x="146" y="543"/>
      <point x="293" y="626"/>
      <point x="467" y="629" type="curve"/>
      <point x="692" y="626"/>
      <point x="820" y="455"/>
      <point x="779" y="248" type="curve" smooth="yes"/>
      <point x="763" y="168"/>
      <point x="688" y="93"/>
      <point x="638" y="93" type="curve"/>
      <point x="581" y="95"/>
      <point x="558" y="125"/>
      <point x="571" y="190" type="curve"/>
      <point x="593" y="296" type="line"/>
      <point x="606" y="357"/>
      <point x="620" y="416"/>
      <point x="639" y="478" type="curve"/>
      <point x="608" y="475" type="line"/>
      <point x="592" y="420" type="line"/>
      <point x="587" y="420" type="line"/>
      <point x="556" y="453"/>
      <point x="497" y="484"/>
      <point x="445" y="484" type="curve" smooth="yes"/>
      <point x="351" y="484"/>
      <point x="277" y="415"/>
      <point x="253" y="300" type="curve" smooth="yes"/>
      <point x="228" y="182"/>
      <point x="274" y="73"/>
      <point x="395" y="73" type="curve" smooth="yes"/>
      <point x="439" y="73"/>
      <point x="487" y="95"/>
      <point x="533" y="141" type="curve"/>
      <point x="538" y="141" type="line"/>
      <point x="544" y="104"/>
      <point x="570" y="63"/>
      <point x="645" y="63" type="curve" smooth="yes"/>
      <point x="692" y="63"/>
      <point x="789" y="137"/>
      <point x="809" y="242" type="curve" smooth="yes"/>
      <point x="852" y="469"/>
      <point x="706" y="660"/>
      <point x="468" y="660" type="curve" smooth="yes"/>
      <point x="278" y="660"/>
      <point x="116" y="559"/>
      <point x="71" y="337" type="curve" smooth="yes"/>
      <point x="24" y="107"/>
      <point x="167" y="-122"/>
    </contour>
    <contour>
      <point x="399" y="103" type="curve"/>
      <point x="298" y="105"/>
      <point x="261" y="188"/>
      <point x="284" y="297" type="curve" smooth="yes"/>
      <point x="303" y="386"/>
      <point x="356" y="451"/>
      <point x="447" y="453" type="curve" smooth="yes"/>
      <point x="498" y="454"/>
      <point x="546" y="426"/>
      <point x="582" y="389" type="curve"/>
      <point x="540" y="194" type="line"/>
      <point x="493" y="130"/>
      <point x="441" y="105"/>
    </contour>
  </outline>
</glyph>
<glyph name="A" format="2">
  <advance width="668"/>
  <unicode hex="0041"/>
  <anchor x="282" y="0" name="bottom"/>
  <anchor x="583" y="0" name="ogonek"/>
  <anchor x="432" y="713" name="top"/>
  <outline>
    <contour>
      <point x="-21" y="0" type="curve"/>
      <point x="24" y="0" type="line"/>
      <point x="75" y="91"/>
      <point x="132" y="186"/>
      <point x="185" y="275" type="curve"/>
      <point x="425" y="677" type="line"/>
      <point x="431" y="677" type="line"/>
      <point x="500" y="274" type="line"/>
      <point x="515" y="187"/>
      <point x="532" y="88"/>
      <point x="544" y="0" type="curve"/>
      <point x="583" y="0" type="line"/>
      <point x="568" y="75"/>
      <point x="552" y="163"/>
      <point x="538" y="243" type="curve"/>
      <point x="496" y="487" type="line"/>
      <point x="481" y="574"/>
      <point x="470" y="643"/>
      <point x="461" y="713" type="curve"/>
      <point x="406" y="713" type="line"/>
      <point x="364" y="639"/>
      <point x="325" y="572"/>
      <point x="275" y="488" type="curve"/>
      <point x="129" y="243" type="line"/>
      <point x="83" y="166"/>
      <point x="29" y="77"/>
    </contour>
    <contour>
      <point x="128" y="203" type="line"/>
      <point x="523" y="203" type="line"/>
      <point x="529" y="233" type="line"/>
      <point x="134" y="233" type="line"/>
    </contour>
  </outline>
</glyph>
<glyph name="E" format="2">
  <advance width="591"/>
  <unicode hex="0045"/>
  <anchor x="268" y="0" name="bottom"/>
  <anchor x="476" y="0" name="ogonek"/>
  <anchor x="418" y="713" name="top"/>
  <anchor x="135" y="713" name="topleft"/>
  <outline>
    <contour>
      <point x="56" y="0" type="curve"/>
      <point x="93" y="0" type="line"/>
      <point x="94" y="4" type="line"/>
      <point x="108" y="85"/>
      <point x="122" y="154"/>
      <point x="141" y="242" type="curve"/>
      <point x="190" y="472" type="line"/>
      <point x="208" y="560"/>
      <point x="224" y="629"/>
      <point x="243" y="710" type="curve"/>
      <point x="243" y="713" type="line"/>
      <point x="206" y="713" type="line"/>
      <point x="191" y="632"/>
      <point x="177" y="562"/>
      <point x="158" y="473" type="curve"/>
      <point x="108" y="238" type="line"/>
      <point x="90" y="151"/>
      <point x="75" y="81"/>
    </contour>
    <contour>
      <point x="84" y="0" type="line"/>
      <point x="476" y="0" type="line"/>
      <point x="483" y="35" type="line"/>
      <point x="406" y="32"/>
      <point x="324" y="31"/>
      <point x="231" y="31" type="curve"/>
      <point x="91" y="31" type="line"/>
    </contour>
    <contour>
      <point x="157" y="347" type="line"/>
      <point x="301" y="347" type="line"/>
      <point x="395" y="347"/>
      <point x="458" y="347"/>
      <point x="527" y="346" type="curve"/>
      <point x="534" y="381" type="line"/>
      <point x="469" y="378"/>
      <point x="405" y="378"/>
      <point x="309" y="378" type="curve"/>
      <point x="164" y="378" type="line"/>
    </contour>
    <contour>
      <point x="227" y="682" type="line"/>
      <point x="363" y="682" type="line"/>
      <point x="473" y="682"/>
      <point x="549" y="681"/>
      <point x="620" y="678" type="curve"/>
      <point x="627" y="713" type="line"/>
      <point x="234" y="713" type="line"/>
    </contour>
  </outline>
</glyph>
<glyph name="F" format="2">
  <advance width="571"/>
  <unicode hex="0046"/>
  <outline>
    <contour>
      <point x="56" y="0" type="curve"/>
      <point x="93" y="0" type="line"/>
      <point x="107" y="81"/>
      <point x="121" y="149"/>
      <point x="140" y="238" type="curve"/>
      <point x="190" y="472" type="line"/>
      <point x="208" y="560"/>
      <point x="224" y="629"/>
      <point x="243" y="710" type="curve"/>
      <point x="243" y="713" type="line"/>
      <point x="206" y="713" type="line"/>
      <point x="191" y="632"/>
      <point x="177" y="562"/>
      <point x="158" y="473" type="curve"/>
      <point x="108" y="238" type="line"/>
      <point x="90" y="151"/>
      <point x="75" y="81"/>
    </contour>
    <contour>
      <point x="157" y="347" type="line"/>
      <point x="291" y="347" type="line"/>
      <point x="385" y="347"/>
      <point x="448" y="347"/>
      <point x="517" y="346" type="curve"/>
      <point x="524" y="381" type="line"/>
      <point x="459" y="378"/>
      <point x="395" y="378"/>
      <point x="299" y="378" type="curve"/>
      <point x="164" y="378" type="line"/>
    </contour>
    <contour>
      <point x="227" y="682" type="line"/>
      <point x="353" y="682" type="line"/>
      <point x="463" y="682"/>
      <point x="539" y="681"/>
      <point x="610" y="678" type="curve"/>
      <point x="617" y="713" type="line"/>
      <point x="234" y="713" type="line"/>
    </contour>
  </outline>
</glyph>
<glyph name="K" format="2">
  <advance width="649"/>
  <unicode hex="004B"/>
  <anchor x="280" y="0" name="bottom"/>
  <anchor x="430" y="713" name="top"/>
  <outline>
    <contour>
      <point x="513" y="0" type="curve"/>
      <point x="564" y="0" type="line"/>
      <point x="507" y="59"/>
      <point x="421" y="152"/>
      <point x="357" y="222" type="curve"/>
      <point x="219" y="374" type="line"/>
      <point x="221" y="356" type="line"/>
      <point x="399" y="493" type="line"/>
      <point x="494" y="564"/>
      <point x="589" y="636"/>
      <point x="693" y="713" type="curve"/>
      <point x="633" y="713" type="line"/>
      <point x="531" y="633"/>
      <point x="460" y="578"/>
      <point x="379" y="516" type="curve"/>
      <point x="205" y="383" type="line"/>
      <point x="163" y="383" type="line"/>
      <point x="156" y="352" type="line"/>
      <point x="197" y="352" type="line"/>
      <point x="338" y="196" type="line"/>
      <point x="393" y="136"/>
      <point x="448" y="74"/>
    </contour>
    <contour>
      <point x="56" y="0" type="curve"/>
      <point x="93" y="0" type="line"/>
      <point x="107" y="81"/>
      <point x="121" y="149"/>
      <point x="140" y="238" type="curve"/>
      <point x="190" y="473" type="line"/>
      <point x="209" y="562"/>
      <point x="224" y="632"/>
      <point x="243" y="713" type="curve"/>
      <point x="206" y="713" type="line"/>
      <point x="191" y="632"/>
      <point x="177" y="562"/>
      <point x="158" y="473" type="curve"/>
      <point x="108" y="238" type="line"/>
      <point x="90" y="151"/>
      <point x="75" y="81"/>
    </contour>
  </outline>
</glyph>
<glyph name="M" format="2">
  <advance width="950"/>
  <unicode hex="004D"/>
  <anchor x="423" y="0" name="bottom"/>
  <anchor x="573" y="713" name="top"/>
  <outline>
    <contour>
      <point x="24" y="0" type="curve"/>
      <point x="63" y="0" type="line"/>
      <point x="110" y="144"/>
      <point x="155" y="281"/>
      <point x="193" y="396" type="curve"/>
      <point x="274" y="644" type="line"/>
      <point x="277" y="644" type="line"/>
      <point x="334" y="374" type="line"/>
      <point x="359" y="249"/>
      <point x="387" y="104"/>
      <point x="408" y="0" type="curve"/>
      <point x="439" y="0" type="line"/>
      <point x="508" y="111"/>
      <point x="593" y="247"/>
      <point x="674" y="376" type="curve"/>
      <point x="843" y="644" type="line"/>
      <point x="846" y="644" type="line"/>
      <point x="824" y="396" type="line"/>
      <point x="814" y="281"/>
      <point x="800" y="147"/>
      <point x="784" y="0" type="curve"/>
      <point x="822" y="0" type="line"/>
      <point x="828" y="81"/>
      <point x="834" y="152"/>
      <point x="842" y="238" type="curve"/>
      <point x="864" y="473" type="line"/>
      <point x="872" y="561"/>
      <point x="879" y="631"/>
      <point x="888" y="713" type="curve"/>
      <point x="847" y="713" type="line"/>
      <point x="776" y="596"/>
      <point x="708" y="487"/>
      <point x="639" y="378" type="curve"/>
      <point x="435" y="55" type="line"/>
      <point x="431" y="55" type="line"/>
      <point x="365" y="378" type="line"/>
      <point x="343" y="487"/>
      <point x="321" y="596"/>
      <point x="301" y="713" type="curve"/>
      <point x="261" y="713" type="line"/>
      <point x="237" y="630"/>
      <point x="214" y="559"/>
      <point x="185" y="473" type="curve"/>
      <point x="107" y="238" type="line"/>
      <point x="78" y="151"/>
      <point x="54" y="81"/>
    </contour>
  </outline>
</glyph>
<glyph name="N" format="2">
  <advance width="761"/>
  <unicode hex="004E"/>
  <anchor x="327" y="0" name="bottom"/>
  <anchor x="477" y="713" name="top"/>
  <outline>
    <contour>
      <point x="56" y="0" type="curve"/>
      <point x="93" y="0" type="line"/>
      <point x="107" y="81"/>
      <point x="121" y="149"/>
      <point x="140" y="238" type="curve"/>
      <point x="229" y="661" type="line"/>
      <point x="233" y="661" type="line"/>
      <point x="363" y="400" type="line"/>
      <point x="441" y="244"/>
      <point x="503" y="117"/>
      <point x="560" y="0" type="curve"/>
      <point x="598" y="0" type="line"/>
      <point x="612" y="81"/>
      <point x="626" y="149"/>
      <point x="645" y="238" type="curve"/>
      <point x="695" y="473" type="line"/>
      <point x="714" y="562"/>
      <point x="729" y="632"/>
      <point x="748" y="713" type="curve"/>
      <point x="711" y="713" type="line"/>
      <point x="696" y="632"/>
      <point x="682" y="562"/>
      <point x="663" y="473" type="curve"/>
      <point x="574" y="56" type="line"/>
      <point x="570" y="56" type="line"/>
      <point x="441" y="315" type="line"/>
      <point x="378" y="442"/>
      <point x="313" y="574"/>
      <point x="245" y="713" type="curve"/>
      <point x="206" y="713" type="line"/>
      <point x="191" y="632"/>
      <point x="177" y="562"/>
      <point x="158" y="473" type="curve"/>
      <point x="108" y="238" type="line"/>
      <point x="90" y="151"/>
      <point x="75" y="81"/>
    </contour>
  </outline>
</glyph>
<glyph name="P" format="2">
  <advance width="610"/>
  <unicode hex="0050"/>
  <outline>
    <contour>
      <point x="329" y="310" type="curve"/>
      <point x="534" y="310"/>
      <point x="589" y="382"/>
      <point x="615" y="504" type="curve" smooth="yes"/>
      <point x="641" y="627"/>
      <point x="574" y="714"/>
      <point x="420" y="714" type="curve"/>
      <point x="323" y="714"/>
      <point x="260" y="713"/>
      <point x="206" y="713" type="curve"/>
      <point x="222" y="682" type="line"/>
      <point x="416" y="682" type="line" smooth="yes"/>
      <point x="501" y="682"/>
      <point x="614" y="657"/>
      <point x="582" y="509" type="curve" smooth="yes"/>
      <point x="555" y="377"/>
      <point x="490" y="341"/>
      <point x="332" y="341" type="curve" smooth="yes"/>
      <point x="157" y="341" type="line"/>
      <point x="150" y="311" type="line"/>
      <point x="190" y="311"/>
      <point x="278" y="310"/>
    </contour>
    <contour>
      <point x="56" y="0" type="curve"/>
      <point x="93" y="0" type="line"/>
      <point x="107" y="81"/>
      <point x="121" y="149"/>
      <point x="140" y="238" type="curve"/>
      <point x="190" y="472" type="line"/>
      <point x="208" y="560"/>
      <point x="224" y="629"/>
      <point x="243" y="710" type="curve"/>
      <point x="206" y="713" type="line"/>
      <point x="191" y="632"/>
      <point x="177" y="562"/>
      <point x="158" y="473" type="curve"/>
      <point x="108" y="238" type="line"/>
      <point x="90" y="151"/>
      <point x="75" y="81"/>
    </contour>
  </outline>
</glyph>
<glyph name="S" format="2">
  <advance width="575"/>
  <unicode hex="0053"/>
  <anchor x="241" y="0" name="bottom"/>
  <anchor x="391" y="713" name="top"/>
  <outline>
    <contour>
      <point x="268" y="-9" type="curve" smooth="yes"/>
      <point x="412" y="-9"/>
      <point x="488" y="55"/>
      <point x="510" y="159" type="curve" smooth="yes"/>
      <point x="529" y="250"/>
      <point x="489" y="314"/>
      <point x="330" y="382" type="curve" smooth="yes"/>
      <point x="190" y="442"/>
      <point x="144" y="481"/>
      <point x="163" y="570" type="curve" smooth="yes"/>
      <point x="184" y="669"/>
      <point x="280" y="690"/>
      <point x="367" y="692" type="curve"/>
      <point x="403" y="692"/>
      <point x="475" y="673"/>
      <point x="556" y="627" type="curve"/>
      <point x="569" y="663" type="line"/>
      <point x="515" y="688"/>
      <point x="435" y="725"/>
      <point x="367" y="725" type="curve" smooth="yes"/>
      <point x="235" y="725"/>
      <point x="152" y="671"/>
      <point x="132" y="576" type="curve" smooth="yes"/>
      <point x="109" y="469"/>
      <point x="166" y="417"/>
      <point x="312" y="355" type="curve" smooth="yes"/>
      <point x="433" y="304"/>
      <point x="498" y="258"/>
      <point x="479" y="165" type="curve" smooth="yes"/>
      <point x="454" y="47"/>
      <point x="357" y="26"/>
      <point x="269" y="24" type="curve"/>
      <point x="203" y="24"/>
      <point x="127" y="54"/>
      <point x="49" y="101" type="curve"/>
      <point x="35" y="65" type="line"/>
      <point x="91" y="38"/>
      <point x="174" y="-9"/>
    </contour>
  </outline>
</glyph>
<glyph name="T" format="2">
  <advance width="637"/>
  <unicode hex="0054"/>
  <anchor x="268" y="0" name="bottom"/>
  <anchor x="343" y="357" name="center"/>
  <anchor x="418" y="713" name="top"/>
  <outline>
    <contour>
      <point x="250" y="0" type="curve"/>
      <point x="287" y="0" type="line"/>
      <point x="301" y="81"/>
      <point x="315" y="149"/>
      <point x="334" y="238" type="curve"/>
      <point x="384" y="472" type="line"/>
      <point x="402" y="560"/>
      <point x="418" y="629"/>
      <point x="437" y="710" type="curve"/>
      <point x="437" y="713" type="line"/>
      <point x="400" y="713" type="line"/>
      <point x="399" y="710" type="line"/>
      <point x="385" y="629"/>
      <point x="371" y="559"/>
      <point x="352" y="472" type="curve"/>
      <point x="302" y="238" type="line"/>
      <point x="284" y="151"/>
      <point x="269" y="81"/>
    </contour>
    <contour>
      <point x="127" y="678" type="line"/>
      <point x="186" y="680"/>
      <point x="248" y="682"/>
      <point x="333" y="682" type="curve"/>
      <point x="400" y="682" type="line"/>
      <point x="407" y="713" type="line"/>
      <point x="134" y="713" type="line"/>
    </contour>
    <contour>
      <point x="421" y="682" type="line"/>
      <point x="488" y="682" type="line"/>
      <point x="573" y="682"/>
      <point x="636" y="681"/>
      <point x="694" y="678" type="curve"/>
      <point x="701" y="713" type="line"/>
      <point x="428" y="713" type="line"/>
    </contour>
  </outline>
</glyph>
<glyph name="X" format="2">
  <advance width="659"/>
  <unicode hex="0058"/>
  <outline>
    <contour>
      <point x="-10" y="0" type="curve"/>
      <point x="41" y="0" type="line"/>
      <point x="102" y="70"/>
      <point x="153" y="128"/>
      <point x="209" y="190" type="curve"/>
      <point x="339" y="335" type="line"/>
      <point x="345" y="335" type="line"/>
      <point x="422" y="191" type="line"/>
      <point x="453" y="133"/>
      <point x="486" y="70"/>
      <point x="521" y="0" type="curve"/>
      <point x="565" y="0" type="line"/>
      <point x="521" y="75"/>
      <point x="484" y="142"/>
      <point x="443" y="219" type="curve"/>
      <point x="361" y="374" type="line"/>
      <point x="357" y="357" type="line"/>
      <point x="502" y="515" type="line"/>
      <point x="554" y="572"/>
      <point x="618" y="640"/>
      <point x="687" y="713" type="curve"/>
      <point x="635" y="713" type="line"/>
      <point x="574" y="645"/>
      <point x="514" y="575"/>
      <point x="457" y="513" type="curve"/>
      <point x="349" y="394" type="line"/>
      <point x="343" y="394" type="line"/>
      <point x="283" y="511" type="line"/>
      <point x="252" y="572"/>
      <point x="218" y="642"/>
      <point x="185" y="713" type="curve"/>
      <point x="141" y="713" type="line"/>
      <point x="184" y="633"/>
      <point x="219" y="566"/>
      <point x="253" y="500" type="curve"/>
      <point x="327" y="355" type="line"/>
      <point x="330" y="372" type="line"/>
      <point x="174" y="199" type="line"/>
      <point x="109" y="127"/>
      <point x="50" y="63"/>
    </contour>
  </outline>
</glyph>
<glyph name="Z" format="2">
  <advance width="659"/>
  <unicode hex="005A"/>
  <anchor x="278" y="0" name="bottom"/>
  <anchor x="353" y="357" name="center"/>
  <anchor x="428" y="713" name="top"/>
  <outline>
    <contour>
      <point x="3" y="0" type="line"/>
      <point x="547" y="0" type="line"/>
      <point x="555" y="36" type="line"/>
      <point x="466" y="31"/>
      <point x="323" y="31"/>
      <point x="225" y="31" type="curve"/>
      <point x="21" y="31" type="line"/>
      <point x="33" y="5" type="line"/>
      <point x="434" y="420" type="line"/>
      <point x="518" y="507"/>
      <point x="602" y="594"/>
      <point x="687" y="680" type="curve"/>
      <point x="694" y="713" type="line"/>
      <point x="159" y="713" type="line"/>
      <point x="152" y="678" type="line"/>
      <point x="263" y="681"/>
      <point x="367" y="682"/>
      <point x="459" y="682" type="curve"/>
      <point x="682" y="682" type="line"/>
      <point x="659" y="700" type="line"/>
      <point x="284" y="311" type="line"/>
      <point x="201" y="225"/>
      <point x="85" y="105"/>
      <point x="10" y="30" type="curve"/>
    </contour>
  </outline>
</glyph>
<glyph name="backslash" format="2">
  <advance width="438"/>
  <unicode hex="005C"/>
  <outline>
    <contour>
      <point x="313" y="0" type="curve"/>
      <point x="348" y="0" type="line"/>
      <point x="330" y="74"/>
      <point x="312" y="137"/>
      <point x="289" y="228" type="curve"/>
      <point x="228" y="475" type="line"/>
      <point x="205" y="570"/>
      <point x="189" y="637"/>
      <point x="171" y="713" type="curve"/>
      <point x="136" y="713" type="line"/>
      <point x="157" y="636"/>
      <point x="174" y="572"/>
      <point x="197" y="475" type="curve"/>
      <point x="258" y="228" type="line"/>
      <point x="281" y="137"/>
      <point x="296" y="74"/>
    </contour>
  </outline>
</glyph>
<glyph name="asciicircum" format="2">
  <advance width="590"/>
  <unicode hex="005E"/>
  <outline>
    <contour>
      <point x="518" y="394" type="curve"/>
      <point x="553" y="395" type="line"/>
      <point x="502" y="491"/>
      <point x="455" y="588"/>
      <point x="410" y="684" type="curve"/>
      <point x="358" y="684" type="line"/>
      <point x="276" y="590"/>
      <point x="193" y="497"/>
      <point x="100" y="397" type="curve"/>
      <point x="141" y="397" type="line"/>
      <point x="222" y="483"/>
      <point x="301" y="570"/>
      <point x="379" y="656" type="curve"/>
      <point x="385" y="656" type="line"/>
      <point x="429" y="569"/>
      <point x="472" y="481"/>
    </contour>
  </outline>
</glyph>
<glyph name="a" format="2">
  <advance width="516"/>
  <unicode hex="0061"/>
  <anchor x="210" y="0" name="bottom"/>
  <anchor x="373" y="0" name="ogonek"/>
  <anchor x="316" y="494" name="top"/>
  <outline>
    <contour>
      <point x="182" y="-9" type="curve" smooth="yes"/>
      <point x="244" y="-9"/>
      <point x="314" y="26"/>
      <point x="359" y="81" type="curve"/>
      <point x="365" y="81" type="line"/>
      <point x="371" y="0" type="line"/>
      <point x="403" y="0" type="line"/>
      <point x="397" y="53"/>
      <point x="393" y="97"/>
      <point x="401" y="137" type="curve"/>
      <point x="417" y="211" type="line" smooth="yes"/>
      <point x="427" y="256"/>
      <point x="435" y="290"/>
      <point x="441" y="318" type="curve" smooth="yes"/>
      <point x="464" y="427"/>
      <point x="417" y="504"/>
      <point x="301" y="504" type="curve" smooth="yes"/>
      <point x="254" y="504"/>
      <point x="183" y="482"/>
      <point x="136" y="469" type="curve"/>
      <point x="131" y="430" type="line"/>
      <point x="210" y="458"/>
      <point x="271" y="472"/>
      <point x="299" y="472" type="curve" smooth="yes"/>
      <point x="390" y="472"/>
      <point x="437" y="427"/>
      <point x="409" y="312" type="curve"/>
      <point x="228" y="276" type="line" smooth="yes"/>
      <point x="146" y="260"/>
      <point x="64" y="241"/>
      <point x="43" y="148" type="curve" smooth="yes"/>
      <point x="22" y="56"/>
      <point x="83" y="-9"/>
    </contour>
    <contour>
      <point x="183" y="22" type="curve" smooth="yes"/>
      <point x="105" y="22"/>
      <point x="56" y="62"/>
      <point x="74" y="148" type="curve" smooth="yes"/>
      <point x="88" y="215"/>
      <point x="156" y="231"/>
      <point x="232" y="246" type="curve" smooth="yes"/>
      <point x="352" y="270"/>
      <point x="383" y="280"/>
      <point x="404" y="288" type="curve"/>
      <point x="373" y="144" type="line"/>
      <point x="309" y="51"/>
      <point x="236" y="22"/>
    </contour>
  </outline>
</glyph>
<glyph name="c" format="2">
  <advance width="502"/>
  <unicode hex="0063"/>
  <anchor x="238" y="0" name="bottom"/>
  <anchor x="333" y="494" name="top"/>
  <outline>
    <contour>
      <point x="277" y="-9" type="curve" smooth="yes"/>
      <point x="324" y="-9"/>
      <point x="376" y="9"/>
      <point x="403" y="23" type="curve"/>
      <point x="403" y="63" type="line"/>
      <point x="366" y="41"/>
      <point x="317" y="24"/>
      <point x="277" y="23" type="curve"/>
      <point x="140" y="25"/>
      <point x="65" y="116"/>
      <point x="97" y="267" type="curve" smooth="yes"/>
      <point x="125" y="398"/>
      <point x="215" y="467"/>
      <point x="328" y="472" type="curve"/>
      <point x="365" y="472"/>
      <point x="423" y="456"/>
      <point x="477" y="423" type="curve"/>
      <point x="488" y="458" type="line"/>
      <point x="448" y="478"/>
      <point x="387" y="504"/>
      <point x="329" y="504" type="curve" smooth="yes"/>
      <point x="199" y="504"/>
      <point x="94" y="409"/>
      <point x="66" y="273" type="curve" smooth="yes"/>
      <point x="33" y="111"/>
      <point x="116" y="-9"/>
    </contour>
  </outline>
</glyph>
<glyph name="g" format="2">
  <advance width="536"/>
  <unicode hex="0067"/>
  <anchor x="174" y="-192" name="bottom"/>
  <anchor x="301" y="494" name="top"/>
  <outline>
    <contour>
      <point x="171" y="-201" type="curve" smooth="yes"/>
      <point x="280" y="-201"/>
      <point x="393" y="-156"/>
      <point x="412" y="-67" type="curve" smooth="yes"/>
      <point x="427" y="3"/>
      <point x="375" y="55"/>
      <point x="238" y="55" type="curve" smooth="yes"/>
      <point x="205" y="55" type="line"/>
      <point x="122" y="55"/>
      <point x="107" y="88"/>
      <point x="113" y="117" type="curve" smooth="yes"/>
      <point x="121" y="152"/>
      <point x="159" y="163"/>
      <point x="245" y="175" type="curve" smooth="yes"/>
      <point x="344" y="189"/>
      <point x="417" y="229"/>
      <point x="437" y="321" type="curve" smooth="yes"/>
      <point x="449" y="379"/>
      <point x="432" y="435"/>
      <point x="369" y="476" type="curve"/>
      <point x="357" y="470" type="line"/>
      <point x="423" y="468"/>
      <point x="490" y="466"/>
      <point x="558" y="462" type="curve"/>
      <point x="565" y="494" type="line"/>
      <point x="387" y="494" type="line" smooth="yes"/>
      <point x="341" y="494"/>
      <point x="322" y="504"/>
      <point x="277" y="504" type="curve" smooth="yes"/>
      <point x="184" y="504"/>
      <point x="104" y="460"/>
      <point x="84" y="364" type="curve" smooth="yes"/>
      <point x="65" y="272"/>
      <point x="134" y="212"/>
      <point x="166" y="194" type="curve"/>
      <point x="166" y="189" type="line"/>
      <point x="121" y="179"/>
      <point x="91" y="158"/>
      <point x="82" y="120" type="curve" smooth="yes"/>
      <point x="72" y="75"/>
      <point x="104" y="51"/>
      <point x="120" y="44" type="curve"/>
      <point x="120" y="40" type="line"/>
      <point x="75" y="28"/>
      <point x="8" y="-4"/>
      <point x="-5" y="-63" type="curve" smooth="yes"/>
      <point x="-24" y="-151"/>
      <point x="65" y="-201"/>
    </contour>
    <contour>
      <point x="171" y="-169" type="curve"/>
      <point x="99" y="-169"/>
      <point x="9" y="-145"/>
      <point x="26" y="-65" type="curve" smooth="yes"/>
      <point x="37" y="-11"/>
      <point x="123" y="15"/>
      <point x="168" y="24" type="curve"/>
      <point x="233" y="24" type="line" smooth="yes"/>
      <point x="365" y="24"/>
      <point x="393" y="-14"/>
      <point x="382" y="-63" type="curve" smooth="yes"/>
      <point x="370" y="-115"/>
      <point x="302" y="-169"/>
    </contour>
    <contour>
      <point x="219" y="201" type="curve"/>
      <point x="156" y="221"/>
      <point x="99" y="281"/>
      <point x="114" y="358" type="curve" smooth="yes"/>
      <point x="130" y="438"/>
      <point x="192" y="472"/>
      <point x="274" y="472" type="curve"/>
      <point x="355" y="472"/>
      <point x="424" y="413"/>
      <point x="406" y="328" type="curve" smooth="yes"/>
      <point x="384" y="226"/>
      <point x="295" y="210"/>
    </contour>
  </outline>
</glyph>
<glyph name="h" format="2">
  <advance width="568"/>
  <unicode hex="0068"/>
  <guideline x="42" y="714" angle="15.2551"/>
  <anchor x="237" y="0" name="bottom"/>
  <anchor x="323" y="409" name="center"/>
  <anchor x="372" y="723" name="top"/>
  <outline>
    <contour>
      <point x="48" y="0" type="curve"/>
      <point x="83" y="0" type="line"/>
      <point x="98" y="75"/>
      <point x="111" y="140"/>
      <point x="128" y="221" type="curve"/>
      <point x="156" y="350" type="line"/>
      <point x="215" y="413"/>
      <point x="297" y="472"/>
      <point x="361" y="472" type="curve" smooth="yes"/>
      <point x="458" y="472"/>
      <point x="484" y="416"/>
      <point x="462" y="313" type="curve"/>
      <point x="443" y="221" type="line"/>
      <point x="426" y="140"/>
      <point x="411" y="75"/>
      <point x="393" y="0" type="curve"/>
      <point x="428" y="0" type="line"/>
      <point x="443" y="75"/>
      <point x="456" y="140"/>
      <point x="473" y="221" type="curve"/>
      <point x="481" y="259"/>
      <point x="487" y="284"/>
      <point x="493" y="311" type="curve" smooth="yes"/>
      <point x="520" y="433"/>
      <point x="474" y="504"/>
      <point x="363" y="504" type="curve" smooth="yes"/>
      <point x="295" y="504"/>
      <point x="215" y="445"/>
      <point x="172" y="407" type="curve"/>
      <point x="167" y="407" type="line"/>
      <point x="186" y="494" type="line"/>
      <point x="204" y="579"/>
      <point x="221" y="658"/>
      <point x="243" y="740" type="curve"/>
      <point x="201" y="729" type="line"/>
      <point x="189" y="657"/>
      <point x="174" y="579"/>
      <point x="156" y="494" type="curve"/>
      <point x="98" y="221" type="line"/>
      <point x="81" y="140"/>
      <point x="66" y="75"/>
    </contour>
  </outline>
</glyph>
<glyph name="n" format="2">
  <advance width="574"/>
  <unicode hex="006E"/>
  <anchor x="242" y="0" name="bottom"/>
  <anchor x="346" y="494" name="top"/>
  <outline>
    <contour>
      <point x="54" y="0" type="curve"/>
      <point x="89" y="0" type="line"/>
      <point x="104" y="75"/>
      <point x="117" y="140"/>
      <point x="134" y="221" type="curve"/>
      <point x="162" y="350" type="line"/>
      <point x="221" y="413"/>
      <point x="303" y="472"/>
      <point x="367" y="472" type="curve" smooth="yes"/>
      <point x="464" y="472"/>
      <point x="490" y="416"/>
      <point x="468" y="313" type="curve"/>
      <point x="449" y="221" type="line"/>
      <point x="432" y="140"/>
      <point x="417" y="75"/>
      <point x="399" y="0" type="curve"/>
      <point x="434" y="0" type="line"/>
      <point x="449" y="75"/>
      <point x="462" y="140"/>
      <point x="479" y="221" type="curve"/>
      <point x="487" y="259"/>
      <point x="493" y="284"/>
      <point x="499" y="311" type="curve" smooth="yes"/>
      <point x="526" y="433"/>
      <point x="480" y="504"/>
      <point x="369" y="504" type="curve" smooth="yes"/>
      <point x="301" y="504"/>
      <point x="220" y="445"/>
      <point x="178" y="406" type="curve"/>
      <point x="173" y="406" type="line"/>
      <point x="184" y="497" type="line"/>
      <point x="153" y="494" type="line"/>
      <point x="144" y="420"/>
      <point x="130" y="342"/>
      <point x="115" y="271" type="curve"/>
      <point x="104" y="221" type="line"/>
      <point x="87" y="140"/>
      <point x="72" y="75"/>
    </contour>
  </outline>
</glyph>
<glyph name="q" format="2">
  <advance width="585"/>
  <unicode hex="0071"/>
  <outline>
    <contour>
      <point x="359" y="-194" type="curve"/>
      <point x="395" y="-192" type="line"/>
      <point x="410" y="-117"/>
      <point x="423" y="-52"/>
      <point x="440" y="29" type="curve"/>
      <point x="491" y="271" type="line"/>
      <point x="506" y="343"/>
      <point x="525" y="422"/>
      <point x="548" y="497" type="curve"/>
      <point x="517" y="494" type="line"/>
      <point x="496" y="424" type="line"/>
      <point x="490" y="424" type="line"/>
      <point x="451" y="465"/>
      <point x="379" y="504"/>
      <point x="310" y="504" type="curve" smooth="yes"/>
      <point x="188" y="504"/>
      <point x="98" y="419"/>
      <point x="68" y="275" type="curve" smooth="yes"/>
      <point x="37" y="125"/>
      <point x="99" y="-9"/>
      <point x="252" y="-9" type="curve" smooth="yes"/>
      <point x="304" y="-9"/>
      <point x="371" y="24"/>
      <point x="414" y="74" type="curve"/>
      <point x="420" y="74" type="line"/>
      <point x="410" y="29" type="line"/>
      <point x="393" y="-52"/>
      <point x="377" y="-119"/>
    </contour>
    <contour>
      <point x="253" y="23" type="curve"/>
      <point x="118" y="25"/>
      <point x="70" y="136"/>
      <point x="99" y="271" type="curve" smooth="yes"/>
      <point x="124" y="388"/>
      <point x="189" y="469"/>
      <point x="310" y="472" type="curve"/>
      <point x="376" y="471"/>
      <point x="441" y="437"/>
      <point x="486" y="387" type="curve"/>
      <point x="433" y="140" type="line"/>
      <point x="385" y="68"/>
      <point x="317" y="25"/>
    </contour>
  </outline>
</glyph>
<glyph name="s" format="2">
  <advance width="446"/>
  <unicode hex="0073"/>
  <anchor x="170" y="0" name="bottom"/>
  <anchor x="274" y="494" name="top"/>
  <outline>
    <contour>
      <point x="189" y="-9" type="curve" smooth="yes"/>
      <point x="288" y="-9"/>
      <point x="345" y="31"/>
      <point x="360" y="100" type="curve" smooth="yes"/>
      <point x="379" y="186"/>
      <point x="317" y="229"/>
      <point x="232" y="267" type="curve" smooth="yes"/>
      <point x="138" y="310"/>
      <point x="122" y="339"/>
      <point x="132" y="392" type="curve" smooth="yes"/>
      <point x="147" y="461"/>
      <point x="216" y="470"/>
      <point x="253" y="472" type="curve"/>
      <point x="278" y="472"/>
      <point x="330" y="460"/>
      <point x="392" y="428" type="curve"/>
      <point x="403" y="462" type="line"/>
      <point x="363" y="480"/>
      <point x="302" y="504"/>
      <point x="252" y="504" type="curve" smooth="yes"/>
      <point x="180" y="504"/>
      <point x="116" y="465"/>
      <point x="102" y="398" type="curve" smooth="yes"/>
      <point x="85" y="320"/>
      <point x="129" y="283"/>
      <point x="212" y="243" type="curve" smooth="yes"/>
      <point x="309" y="197"/>
      <point x="342" y="170"/>
      <point x="329" y="105" type="curve" smooth="yes"/>
      <point x="315" y="37"/>
      <point x="252" y="25"/>
      <point x="190" y="23" type="curve"/>
      <point x="144" y="23"/>
      <point x="92" y="43"/>
      <point x="38" y="77" type="curve"/>
      <point x="26" y="43" type="line"/>
      <point x="65" y="23"/>
      <point x="123" y="-9"/>
    </contour>
  </outline>
</glyph>
<glyph name="t" format="2">
  <advance width="400"/>
  <unicode hex="0074"/>
  <anchor x="185" y="0" name="bottom"/>
  <anchor x="205" y="247" name="center"/>
  <anchor x="274" y="624" name="top"/>
  <anchor x="267" y="494" name="topright"/>
  <outline>
    <contour>
      <point x="231" y="-9" type="curve" smooth="yes"/>
      <point x="265" y="-9"/>
      <point x="302" y="6"/>
      <point x="319" y="15" type="curve"/>
      <point x="320" y="55" type="line"/>
      <point x="293" y="37"/>
      <point x="255" y="23"/>
      <point x="232" y="23" type="curve" smooth="yes"/>
      <point x="163" y="23"/>
      <point x="125" y="60"/>
      <point x="146" y="157" type="curve" smooth="yes"/>
      <point x="215" y="480" type="line"/>
      <point x="230" y="550"/>
      <point x="239" y="594"/>
      <point x="254" y="665" type="curve"/>
      <point x="222" y="654" type="line"/>
      <point x="209" y="594"/>
      <point x="198" y="542"/>
      <point x="185" y="480" type="curve"/>
      <point x="171" y="414"/>
      <point x="145" y="298"/>
      <point x="116" y="161" type="curve" smooth="yes"/>
      <point x="93" y="54"/>
      <point x="140" y="-9"/>
    </contour>
    <contour>
      <point x="74" y="463" type="line"/>
      <point x="187" y="468" type="line"/>
      <point x="195" y="468" type="line"/>
      <point x="263" y="468"/>
      <point x="336" y="467"/>
      <point x="405" y="463" type="curve"/>
      <point x="412" y="494" type="line"/>
      <point x="81" y="494" type="line"/>
    </contour>
  </outline>
</glyph>
<glyph name="y" format="2">
  <advance width="500"/>
  <unicode hex="0079"/>
  <anchor x="299" y="0" name="bottom"/>
  <anchor x="303" y="494" name="top"/>
  <outline>
    <contour>
      <point x="58" y="-194" type="curve"/>
      <point x="99" y="-192" type="line"/>
      <point x="141" y="-120"/>
      <point x="190" y="-39"/>
      <point x="268" y="88" type="curve"/>
      <point x="353" y="227" type="line"/>
      <point x="429" y="352"/>
      <point x="467" y="413"/>
      <point x="518" y="494" type="curve"/>
      <point x="477" y="494" type="line"/>
      <point x="423" y="401"/>
      <point x="369" y="311"/>
      <point x="311" y="215" type="curve"/>
      <point x="201" y="35" type="line"/>
      <point x="195" y="35" type="line"/>
      <point x="166" y="214" type="line"/>
      <point x="150" y="310"/>
      <point x="135" y="400"/>
      <point x="121" y="496" type="curve"/>
      <point x="86" y="494" type="line"/>
      <point x="101" y="423"/>
      <point x="114" y="347"/>
      <point x="126" y="276" type="curve"/>
      <point x="141" y="186" type="line"/>
      <point x="152" y="120"/>
      <point x="163" y="49"/>
      <point x="174" y="-19" type="curve"/>
      <point x="176" y="-4" type="line"/>
      <point x="138" y="-67"/>
      <point x="98" y="-131"/>
    </contour>
  </outline>
</glyph>
<glyph name="z" format="2">
  <advance width="482"/>
  <unicode hex="007A"/>
  <anchor x="187" y="0" name="bottom"/>
  <anchor x="239" y="247" name="center"/>
  <anchor x="291" y="494" name="top"/>
  <outline>
    <contour>
      <point x="-8" y="0" type="line"/>
      <point x="390" y="0" type="line"/>
      <point x="397" y="31" type="line"/>
      <point x="322" y="29"/>
      <point x="222" y="28"/>
      <point x="162" y="28" type="curve"/>
      <point x="29" y="28" type="line"/>
      <point x="34" y="19" type="line"/>
      <point x="263" y="255" type="line"/>
      <point x="332" y="326"/>
      <point x="419" y="415"/>
      <point x="472" y="469" type="curve"/>
      <point x="477" y="494" type="line"/>
      <point x="96" y="494" type="line"/>
      <point x="89" y="463" type="line"/>
      <point x="170" y="466"/>
      <point x="271" y="466"/>
      <point x="330" y="466" type="curve"/>
      <point x="450" y="466" type="line"/>
      <point x="445" y="484" type="line"/>
      <point x="217" y="249" type="line"/>
      <point x="152" y="182"/>
      <point x="76" y="104"/>
      <point x="-3" y="23" type="curve"/>
    </contour>
  </outline>
</glyph>
<glyph name="cent" format="2">
  <advance width="502"/>
  <unicode hex="00A2"/>
  <anchor x="238" y="0" name="bottom"/>
  <anchor x="333" y="494" name="top"/>
  <outline>
    <contour>
      <point x="179" y="-137" type="curve"/>
      <point x="212" y="-137" type="line"/>
      <point x="235" y="-20"/>
      <point x="257" y="84"/>
      <point x="280" y="192" type="curve"/>
      <point x="302" y="294" type="line"/>
      <point x="325" y="402"/>
      <point x="347" y="506"/>
      <point x="374" y="623" type="curve"/>
      <point x="341" y="623" type="line"/>
      <point x="318" y="506"/>
      <point x="296" y="402"/>
      <point x="273" y="294" type="curve"/>
      <point x="251" y="192" type="line"/>
      <point x="228" y="84"/>
      <point x="206" y="-20"/>
    </contour>
    <contour>
      <point x="277" y="-9" type="curve" smooth="yes"/>
      <point x="324" y="-9"/>
      <point x="376" y="9"/>
      <point x="403" y="23" type="curve"/>
      <point x="403" y="63" type="line"/>
      <point x="366" y="41"/>
      <point x="317" y="24"/>
      <point x="277" y="23" type="curve"/>
      <point x="140" y="25"/>
      <point x="65" y="116"/>
      <point x="97" y="267" type="curve" smooth="yes"/>
      <point x="125" y="398"/>
      <point x="215" y="467"/>
      <point x="328" y="472" type="curve"/>
      <point x="365" y="472"/>
      <point x="423" y="456"/>
      <point x="477" y="423" type="curve"/>
      <point x="488" y="458" type="line"/>
      <point x="448" y="478"/>
      <point x="387" y="504"/>
      <point x="329" y="504" type="curve" smooth="yes"/>
      <point x="199" y="504"/>
      <point x="94" y="409"/>
      <point x="66" y="273" type="curve" smooth="yes"/>
      <point x="33" y="111"/>
      <point x="116" y="-9"/>
    </contour>
  </outline>
</glyph>
<glyph name="sterling" format="2">
  <advance width="579"/>
  <unicode hex="00A3"/>
  <outline>
    <contour>
      <point x="23" y="0" type="line"/>
      <point x="492" y="0" type="line"/>
      <point x="499" y="33" type="line"/>
      <point x="410" y="30"/>
      <point x="331" y="30"/>
      <point x="198" y="30" type="curve"/>
      <point x="50" y="30" type="line"/>
      <point x="56" y="11" type="line"/>
      <point x="147" y="90"/>
      <point x="166" y="155"/>
      <point x="179" y="214" type="curve" smooth="yes"/>
      <point x="235" y="474" type="line" smooth="yes"/>
      <point x="263" y="604"/>
      <point x="322" y="663"/>
      <point x="429" y="664" type="curve"/>
      <point x="467" y="664"/>
      <point x="527" y="648"/>
      <point x="583" y="616" type="curve"/>
      <point x="595" y="650" type="line"/>
      <point x="553" y="670"/>
      <point x="490" y="696"/>
      <point x="430" y="696" type="curve" smooth="yes"/>
      <point x="320" y="696"/>
      <point x="235" y="629"/>
      <point x="204" y="481" type="curve" smooth="yes"/>
      <point x="186" y="400"/>
      <point x="165" y="296"/>
      <point x="148" y="215" type="curve"/>
      <point x="138" y="166"/>
      <point x="118" y="98"/>
      <point x="29" y="27" type="curve"/>
    </contour>
    <contour>
      <point x="91" y="367" type="line"/>
      <point x="150" y="369"/>
      <point x="205" y="369"/>
      <point x="252" y="369" type="curve"/>
      <point x="282" y="369" type="line"/>
      <point x="329" y="369"/>
      <point x="384" y="369"/>
      <point x="441" y="367" type="curve"/>
      <point x="448" y="399" type="line"/>
      <point x="390" y="397"/>
      <point x="335" y="397"/>
      <point x="288" y="397" type="curve"/>
      <point x="258" y="397" type="line"/>
      <point x="211" y="397"/>
      <point x="156" y="397"/>
      <point x="98" y="399" type="curve"/>
    </contour>
  </outline>
</glyph>
<glyph name="ordfeminine" format="2">
  <advance width="388"/>
  <unicode hex="00AA"/>
  <outline>
    <contour>
      <point x="193" y="335" type="curve" smooth="yes"/>
      <point x="240" y="335"/>
      <point x="292" y="362"/>
      <point x="326" y="403" type="curve"/>
      <point x="331" y="403" type="line"/>
      <point x="335" y="342" type="line"/>
      <point x="366" y="342" type="line"/>
      <point x="362" y="383"/>
      <point x="359" y="414"/>
      <point x="365" y="448" type="curve"/>
      <point x="377" y="504" type="line" smooth="yes"/>
      <point x="384" y="538"/>
      <point x="392" y="568"/>
      <point x="395" y="582" type="curve" smooth="yes"/>
      <point x="413" y="667"/>
      <point x="376" y="725"/>
      <point x="286" y="725" type="curve" smooth="yes"/>
      <point x="250" y="725"/>
      <point x="195" y="709"/>
      <point x="159" y="699" type="curve"/>
      <point x="154" y="664" type="line"/>
      <point x="215" y="685"/>
      <point x="261" y="695"/>
      <point x="282" y="695" type="curve" smooth="yes"/>
      <point x="349" y="695"/>
      <point x="385" y="663"/>
      <point x="365" y="583" type="curve"/>
      <point x="229" y="556" type="line" smooth="yes"/>
      <point x="167" y="544"/>
      <point x="105" y="525"/>
      <point x="89" y="454" type="curve" smooth="yes"/>
      <point x="73" y="385"/>
      <point x="118" y="335"/>
    </contour>
    <contour>
      <point x="198" y="365" type="curve" smooth="yes"/>
      <point x="143" y="365"/>
      <point x="106" y="391"/>
      <point x="119" y="454" type="curve" smooth="yes"/>
      <point x="130" y="506"/>
      <point x="179" y="517"/>
      <point x="233" y="528" type="curve" smooth="yes"/>
      <point x="323" y="546"/>
      <point x="340" y="552"/>
      <point x="360" y="560" type="curve"/>
      <point x="337" y="453" type="line"/>
      <point x="290" y="384"/>
      <point x="236" y="365"/>
    </contour>
  </outline>
</glyph>
<glyph name="micro" format="2">
  <advance width="549"/>
  <unicode hex="00B5"/>
  <outline>
    <contour>
      <point x="-8" y="-194" type="curve"/>
      <point x="28" y="-192" type="line"/>
      <point x="42" y="-117"/>
      <point x="55" y="-52"/>
      <point x="73" y="29" type="curve"/>
      <point x="84" y="80" type="line"/>
      <point x="76" y="80" type="line"/>
      <point x="89" y="23"/>
      <point x="132" y="-9"/>
      <point x="206" y="-9" type="curve" smooth="yes"/>
      <point x="268" y="-9"/>
      <point x="349" y="50"/>
      <point x="393" y="91" type="curve"/>
      <point x="398" y="91" type="line"/>
      <point x="405" y="0" type="line"/>
      <point x="437" y="0" type="line"/>
      <point x="431" y="53"/>
      <point x="428" y="100"/>
      <point x="436" y="139" type="curve"/>
      <point x="464" y="271" type="line"/>
      <point x="481" y="352"/>
      <point x="498" y="419"/>
      <point x="514" y="494" type="curve"/>
      <point x="479" y="494" type="line"/>
      <point x="466" y="419"/>
      <point x="452" y="352"/>
      <point x="434" y="271" type="curve"/>
      <point x="407" y="145" type="line"/>
      <point x="348" y="82"/>
      <point x="266" y="23"/>
      <point x="208" y="23" type="curve" smooth="yes"/>
      <point x="111" y="23"/>
      <point x="85" y="79"/>
      <point x="107" y="182" type="curve"/>
      <point x="125" y="271" type="line"/>
      <point x="142" y="352"/>
      <point x="162" y="421"/>
      <point x="176" y="496" type="curve"/>
      <point x="140" y="494" type="line"/>
      <point x="127" y="419"/>
      <point x="113" y="352"/>
      <point x="95" y="271" type="curve"/>
      <point x="43" y="29" type="line"/>
      <point x="26" y="-52"/>
      <point x="10" y="-119"/>
    </contour>
  </outline>
</glyph>
<glyph name="ordmasculine" format="2">
  <advance width="452"/>
  <unicode hex="00BA"/>
  <outline>
    <contour>
      <point x="266" y="335" type="curve" smooth="yes"/>
      <point x="363" y="335"/>
      <point x="441" y="407"/>
      <point x="463" y="511" type="curve" smooth="yes"/>
      <point x="487" y="624"/>
      <point x="428" y="725"/>
      <point x="307" y="725" type="curve" smooth="yes"/>
      <point x="219" y="725"/>
      <point x="133" y="662"/>
      <point x="110" y="550" type="curve" smooth="yes"/>
      <point x="87" y="439"/>
      <point x="143" y="335"/>
    </contour>
    <contour>
      <point x="268" y="365" type="curve"/>
      <point x="161" y="367"/>
      <point x="120" y="448"/>
      <point x="140" y="545" type="curve" smooth="yes"/>
      <point x="158" y="634"/>
      <point x="221" y="693"/>
      <point x="307" y="695" type="curve"/>
      <point x="404" y="693"/>
      <point x="455" y="622"/>
      <point x="433" y="515" type="curve" smooth="yes"/>
      <point x="415" y="429"/>
      <point x="354" y="367"/>
    </contour>
  </outline>
</glyph>
<glyph name="multiply" format="2">
  <advance width="554"/>
  <unicode hex="00D7"/>
  <outline>
    <contour>
      <point x="426" y="93" type="curve"/>
      <point x="453" y="116" type="line"/>
      <point x="420" y="155"/>
      <point x="389" y="193"/>
      <point x="361" y="229" type="curve"/>
      <point x="241" y="382" type="line"/>
      <point x="216" y="414"/>
      <point x="184" y="457"/>
      <point x="153" y="499" type="curve"/>
      <point x="125" y="476" type="line"/>
      <point x="159" y="437"/>
      <point x="190" y="399"/>
      <point x="218" y="363" type="curve"/>
      <point x="338" y="210" type="line"/>
      <point x="366" y="174"/>
      <point x="395" y="135"/>
    </contour>
    <contour>
      <point x="67" y="91" type="line"/>
      <point x="117" y="135"/>
      <point x="160" y="171"/>
      <point x="201" y="205" type="curve"/>
      <point x="392" y="362" type="line"/>
      <point x="432" y="395"/>
      <point x="480" y="433"/>
      <point x="530" y="472" type="curve"/>
      <point x="507" y="499" type="line"/>
      <point x="459" y="457"/>
      <point x="412" y="417"/>
      <point x="373" y="385" type="curve"/>
      <point x="187" y="232" type="line"/>
      <point x="144" y="197"/>
      <point x="96" y="158"/>
      <point x="45" y="118" type="curve"/>
    </contour>
  </outline>
</glyph>
<glyph name="oslash" format="2">
  <advance width="597"/>
  <unicode hex="00F8"/>
  <anchor x="350" y="494" name="top"/>
  <outline>
    <contour>
      <point x="272" y="-9" type="curve" smooth="yes"/>
      <point x="401" y="-9"/>
      <point x="503" y="86"/>
      <point x="532" y="222" type="curve" smooth="yes"/>
      <point x="564" y="371"/>
      <point x="486" y="504"/>
      <point x="326" y="504" type="curve" smooth="yes"/>
      <point x="209" y="504"/>
      <point x="96" y="420"/>
      <point x="66" y="273" type="curve" smooth="yes"/>
      <point x="36" y="128"/>
      <point x="108" y="-9"/>
    </contour>
    <contour>
      <point x="274" y="23" type="curve"/>
      <point x="123" y="26"/>
      <point x="70" y="138"/>
      <point x="97" y="267" type="curve" smooth="yes"/>
      <point x="121" y="384"/>
      <point x="202" y="469"/>
      <point x="326" y="472" type="curve"/>
      <point x="466" y="469"/>
      <point x="530" y="364"/>
      <point x="501" y="228" type="curve" smooth="yes"/>
      <point x="477" y="114"/>
      <point x="399" y="26"/>
    </contour>
    <contour>
      <point x="62" y="-57" type="line"/>
      <point x="117" y="7"/>
      <point x="164" y="64"/>
      <point x="225" y="134" type="curve"/>
      <point x="386" y="319" type="line"/>
      <point x="446" y="388"/>
      <point x="501" y="450"/>
      <point x="557" y="512" type="curve"/>
      <point x="529" y="531" type="line"/>
      <point x="476" y="467"/>
      <point x="428" y="411"/>
      <point x="365" y="339" type="curve"/>
      <point x="202" y="151" type="line"/>
      <point x="143" y="83"/>
      <point x="94" y="29"/>
      <point x="34" y="-37" type="curve"/>
    </contour>
  </outline>
</glyph>
<glyph name="Lslash" format="2">
  <advance width="566"/>
  <unicode hex="0141"/>
  <outline>
    <contour>
      <point x="56" y="0" type="curve"/>
      <point x="93" y="0" type="line"/>
      <point x="94" y="4" type="line"/>
      <point x="108" y="85"/>
      <point x="123" y="155"/>
      <point x="141" y="242" type="curve"/>
      <point x="190" y="473" type="line"/>
      <point x="209" y="562"/>
      <point x="224" y="632"/>
      <point x="243" y="713" type="curve"/>
      <point x="206" y="713" type="line"/>
      <point x="191" y="632"/>
      <point x="177" y="562"/>
      <point x="158" y="473" type="curve"/>
      <point x="108" y="238" type="line"/>
      <point x="90" y="151"/>
      <point x="75" y="81"/>
    </contour>
    <contour>
      <point x="10" y="292" type="line"/>
      <point x="76" y="312"/>
      <point x="135" y="329"/>
      <point x="189" y="344" type="curve"/>
      <point x="239" y="358" type="line"/>
      <point x="292" y="373"/>
      <point x="353" y="390"/>
      <point x="418" y="406" type="curve"/>
      <point x="415" y="440" type="line"/>
      <point x="349" y="420"/>
      <point x="290" y="403"/>
      <point x="236" y="388" type="curve"/>
      <point x="186" y="374" type="line"/>
      <point x="132" y="359"/>
      <point x="73" y="343"/>
      <point x="7" y="326" type="curve"/>
    </contour>
    <contour>
      <point x="84" y="0" type="line"/>
      <point x="476" y="0" type="line"/>
      <point x="483" y="35" type="line"/>
      <point x="399" y="32"/>
      <point x="328" y="31"/>
      <point x="205" y="31" type="curve"/>
      <point x="91" y="31" type="line"/>
    </contour>
  </outline>
</glyph>
<glyph name="Eng" format="2">
  <advance width="758"/>
  <unicode hex="014A"/>
  <outline>
    <contour>
      <point x="415" y="-192" type="curve"/>
      <point x="469" y="-192" type="line"/>
      <point x="515" y="-147"/>
      <point x="579" y="-76"/>
      <point x="601" y="24" type="curve" smooth="yes"/>
      <point x="615" y="89"/>
      <point x="628" y="158"/>
      <point x="645" y="238" type="curve"/>
      <point x="695" y="473" type="line"/>
      <point x="714" y="562"/>
      <point x="729" y="632"/>
      <point x="748" y="713" type="curve"/>
      <point x="711" y="713" type="line"/>
      <point x="696" y="632"/>
      <point x="682" y="562"/>
      <point x="663" y="473" type="curve"/>
      <point x="574" y="56" type="line"/>
      <point x="570" y="56" type="line"/>
      <point x="441" y="315" type="line"/>
      <point x="378" y="442"/>
      <point x="313" y="574"/>
      <point x="245" y="713" type="curve"/>
      <point x="206" y="713" type="line"/>
      <point x="191" y="632"/>
      <point x="177" y="562"/>
      <point x="158" y="473" type="curve"/>
      <point x="108" y="238" type="line"/>
      <point x="90" y="151"/>
      <point x="75" y="81"/>
      <point x="56" y="0" type="curve"/>
      <point x="93" y="0" type="line"/>
      <point x="107" y="81"/>
      <point x="121" y="149"/>
      <point x="140" y="238" type="curve"/>
      <point x="229" y="661" type="line"/>
      <point x="233" y="661" type="line"/>
      <point x="363" y="400" type="line"/>
      <point x="441" y="244"/>
      <point x="503" y="117"/>
      <point x="560" y="0" type="curve"/>
      <point x="580" y="0" type="line"/>
      <point x="569" y="36" type="line"/>
      <point x="567" y="27" type="line"/>
      <point x="548" y="-62"/>
      <point x="485" y="-131"/>
    </contour>
  </outline>
</glyph>
<glyph name="OE" format="2">
  <advance width="1097"/>
  <unicode hex="0152"/>
  <anchor x="551.499" y="0" name="bottom"/>
  <anchor x="703.051" y="713" name="top"/>
  <outline>
    <contour>
      <point x="562" y="0" type="curve"/>
      <point x="599" y="0" type="line"/>
      <point x="600" y="4" type="line"/>
      <point x="614" y="85"/>
      <point x="628" y="154"/>
      <point x="647" y="242" type="curve"/>
      <point x="696" y="472" type="line"/>
      <point x="714" y="560"/>
      <point x="730" y="629"/>
      <point x="749" y="710" type="curve"/>
      <point x="749" y="713" type="line"/>
      <point x="712" y="713" type="line"/>
      <point x="697" y="632"/>
      <point x="683" y="562"/>
      <point x="664" y="473" type="curve"/>
      <point x="614" y="238" type="line"/>
      <point x="596" y="151"/>
      <point x="581" y="81"/>
    </contour>
    <contour>
      <point x="590" y="0" type="line"/>
      <point x="982" y="0" type="line"/>
      <point x="989" y="35" type="line"/>
      <point x="912" y="32"/>
      <point x="830" y="31"/>
      <point x="737" y="31" type="curve"/>
      <point x="597" y="31" type="line"/>
    </contour>
    <contour>
      <point x="663" y="347" type="line"/>
      <point x="807" y="347" type="line"/>
      <point x="901" y="347"/>
      <point x="964" y="347"/>
      <point x="1033" y="346" type="curve"/>
      <point x="1040" y="381" type="line"/>
      <point x="975" y="378"/>
      <point x="911" y="378"/>
      <point x="815" y="378" type="curve"/>
      <point x="670" y="378" type="line"/>
    </contour>
    <contour>
      <point x="733" y="682" type="line"/>
      <point x="869" y="682" type="line"/>
      <point x="979" y="682"/>
      <point x="1055" y="681"/>
      <point x="1126" y="678" type="curve"/>
      <point x="1133" y="713" type="line"/>
      <point x="740" y="713" type="line"/>
    </contour>
    <contour>
      <point x="381" y="-9" type="curve" smooth="yes"/>
      <point x="462" y="-9"/>
      <point x="526" y="12"/>
      <point x="582" y="44" type="curve"/>
      <point x="584" y="82" type="line"/>
      <point x="518" y="44"/>
      <point x="460" y="27"/>
      <point x="380" y="24" type="curve"/>
      <point x="162" y="28"/>
      <point x="81" y="204"/>
      <point x="121" y="393" type="curve" smooth="yes"/>
      <point x="164" y="595"/>
      <point x="298" y="688"/>
      <point x="486" y="692" type="curve"/>
      <point x="562" y="689"/>
      <point x="633" y="673"/>
      <point x="706" y="626" type="curve"/>
      <point x="718" y="657" type="line"/>
      <point x="670" y="690"/>
      <point x="584" y="725"/>
      <point x="488" y="725" type="curve" smooth="yes"/>
      <point x="283" y="725"/>
      <point x="135" y="616"/>
      <point x="89" y="399" type="curve" smooth="yes"/>
      <point x="44" y="187"/>
      <point x="146" y="-9"/>
    </contour>
  </outline>
</glyph>
<glyph name="oe" format="2">
  <advance width="950"/>
  <unicode hex="0153"/>
  <anchor x="461" y="0" name="bottom"/>
  <anchor x="565" y="494" name="top"/>
  <outline>
    <contour>
      <point x="262" y="-9" type="curve" smooth="yes"/>
      <point x="391" y="-9"/>
      <point x="492" y="86"/>
      <point x="521" y="222" type="curve" smooth="yes"/>
      <point x="553" y="371"/>
      <point x="476" y="504"/>
      <point x="316" y="504" type="curve" smooth="yes"/>
      <point x="199" y="504"/>
      <point x="86" y="420"/>
      <point x="56" y="273" type="curve" smooth="yes"/>
      <point x="26" y="128"/>
      <point x="98" y="-9"/>
    </contour>
    <contour>
      <point x="264" y="23" type="curve"/>
      <point x="113" y="26"/>
      <point x="61" y="138"/>
      <point x="87" y="267" type="curve" smooth="yes"/>
      <point x="111" y="384"/>
      <point x="192" y="469"/>
      <point x="316" y="472" type="curve"/>
      <point x="456" y="469"/>
      <point x="520" y="364"/>
      <point x="491" y="228" type="curve" smooth="yes"/>
      <point x="467" y="114"/>
      <point x="389" y="26"/>
    </contour>
    <contour>
      <point x="706" y="-9" type="curve" smooth="yes"/>
      <point x="764" y="-9"/>
      <point x="816" y="9"/>
      <point x="854" y="23" type="curve"/>
      <point x="859" y="64" type="line"/>
      <point x="805" y="37"/>
      <point x="749" y="23"/>
      <point x="706" y="23" type="curve" smooth="yes"/>
      <point x="568" y="23"/>
      <point x="500" y="117"/>
      <point x="529" y="255" type="curve"/>
      <point x="529" y="258" type="line"/>
      <point x="560" y="405"/>
      <point x="650" y="468"/>
      <point x="752" y="471" type="curve"/>
      <point x="857" y="468"/>
      <point x="908" y="401"/>
      <point x="886" y="293" type="curve" smooth="yes"/>
      <point x="884" y="283"/>
      <point x="881" y="272"/>
      <point x="878" y="263" type="curve"/>
      <point x="901" y="237" type="line"/>
      <point x="906" y="251"/>
      <point x="913" y="273"/>
      <point x="916" y="288" type="curve" smooth="yes"/>
      <point x="939" y="403"/>
      <point x="884" y="503"/>
      <point x="754" y="503" type="curve" smooth="yes"/>
      <point x="632" y="503"/>
      <point x="531" y="413"/>
      <point x="501" y="271" type="curve" smooth="yes"/>
      <point x="466" y="105"/>
      <point x="549" y="-9"/>
    </contour>
    <contour>
      <point x="508" y="237" type="line"/>
      <point x="901" y="237" type="line"/>
      <point x="907" y="268" type="line"/>
      <point x="886" y="267" type="line"/>
      <point x="514" y="267" type="line"/>
    </contour>
  </outline>
</glyph>
<glyph name="tbar" format="2">
  <advance width="400"/>
  <unicode hex="0167"/>
  <outline>
    <contour>
      <point x="42" y="270" type="line"/>
      <point x="93" y="272"/>
      <point x="139" y="272"/>
      <point x="177" y="272" type="curve"/>
      <point x="217" y="272" type="line"/>
      <point x="255" y="272"/>
      <point x="301" y="272"/>
      <point x="352" y="270" type="curve"/>
      <point x="359" y="302" type="line"/>
      <point x="307" y="300"/>
      <point x="261" y="300"/>
      <point x="223" y="300" type="curve"/>
      <point x="183" y="300" type="line"/>
      <point x="145" y="300"/>
      <point x="99" y="300"/>
      <point x="49" y="302" type="curve"/>
    </contour>
    <contour>
      <point x="231" y="-9" type="curve" smooth="yes"/>
      <point x="265" y="-9"/>
      <point x="302" y="6"/>
      <point x="319" y="15" type="curve"/>
      <point x="320" y="55" type="line"/>
      <point x="293" y="37"/>
      <point x="255" y="23"/>
      <point x="232" y="23" type="curve" smooth="yes"/>
      <point x="163" y="23"/>
      <point x="125" y="60"/>
      <point x="146" y="157" type="curve" smooth="yes"/>
      <point x="215" y="480" type="line"/>
      <point x="230" y="550"/>
      <point x="239" y="594"/>
      <point x="254" y="665" type="curve"/>
      <point x="222" y="654" type="line"/>
      <point x="209" y="594"/>
      <point x="198" y="542"/>
      <point x="185" y="480" type="curve"/>
      <point x="171" y="414"/>
      <point x="145" y="298"/>
      <point x="116" y="161" type="curve" smooth="yes"/>
      <point x="93" y="54"/>
      <point x="140" y="-9"/>
    </contour>
    <contour>
      <point x="74" y="463" type="line"/>
      <point x="187" y="468" type="line"/>
      <point x="195" y="468" type="line"/>
      <point x="263" y="468"/>
      <point x="336" y="467"/>
      <point x="405" y="463" type="curve"/>
      <point x="412" y="494" type="line"/>
      <point x="81" y="494" type="line"/>
    </contour>
  </outline>
</glyph>
<glyph name="jdotless" format="2">
  <advance width="238"/>
  <unicode hex="0237"/>
  <anchor x="27" y="-192" name="bottom"/>
  <anchor x="170" y="494" name="top"/>
  <outline>
    <contour>
      <point x="-83" y="-194" type="curve"/>
      <point x="-29" y="-192" type="line"/>
      <point x="11" y="-153"/>
      <point x="64" y="-91"/>
      <point x="85" y="8" type="curve" smooth="yes"/>
      <point x="100" y="78"/>
      <point x="112" y="143"/>
      <point x="139" y="271" type="curve"/>
      <point x="156" y="352"/>
      <point x="171" y="419"/>
      <point x="190" y="494" type="curve"/>
      <point x="154" y="494" type="line"/>
      <point x="141" y="419"/>
      <point x="127" y="352"/>
      <point x="109" y="271" type="curve"/>
      <point x="99" y="221" type="line"/>
      <point x="55" y="18" type="line"/>
      <point x="35" y="-75"/>
      <point x="-6" y="-134"/>
    </contour>
  </outline>
</glyph>
<glyph name="macroncomb" format="2">
  <unicode hex="0304"/>
  <anchor x="352" y="494" name="_top"/>
  <anchor x="388" y="668" name="top"/>
  <outline>
    <contour>
      <point x="239" y="649" type="line"/>
      <point x="283" y="650"/>
      <point x="332" y="650"/>
      <point x="385" y="650" type="curve"/>
      <point x="438" y="650"/>
      <point x="487" y="650"/>
      <point x="531" y="649" type="curve"/>
      <point x="537" y="679" type="line"/>
      <point x="493" y="678"/>
      <point x="444" y="678"/>
      <point x="391" y="678" type="curve"/>
      <point x="338" y="678"/>
      <point x="289" y="678"/>
      <point x="245" y="679" type="curve"/>
    </contour>
  </outline>
</glyph>
<glyph name="dotaccentcomb" format="2">
  <unicode hex="0307"/>
  <anchor x="151" y="494" name="_top"/>
  <anchor x="190" y="685" name="top"/>
  <outline>
    <contour>
      <point x="181" y="638" type="curve" smooth="yes"/>
      <point x="206" y="638"/>
      <point x="220" y="651"/>
      <point x="227" y="683" type="curve" smooth="yes"/>
      <point x="233" y="711"/>
      <point x="222" y="725"/>
      <point x="198" y="725" type="curve" smooth="yes"/>
      <point x="174" y="725"/>
      <point x="160" y="719"/>
      <point x="154" y="694" type="curve" smooth="yes"/>
      <point x="145" y="658"/>
      <point x="155" y="638"/>
    </contour>
  </outline>
</glyph>
<glyph name="hungarumlautcomb" format="2">
  <unicode hex="030B"/>
  <anchor x="352" y="494" name="_top"/>
  <anchor x="402" y="736" name="top"/>
  <outline>
    <contour>
      <point x="415" y="586" type="curve"/>
      <point x="452" y="587" type="line"/>
      <point x="518" y="651"/>
      <point x="582" y="714"/>
      <point x="644" y="779" type="curve"/>
      <point x="595" y="778" type="line"/>
      <point x="537" y="714"/>
      <point x="477" y="650"/>
    </contour>
    <contour>
      <point x="248" y="586" type="curve"/>
      <point x="283" y="587" type="line"/>
      <point x="343" y="651"/>
      <point x="400" y="714"/>
      <point x="455" y="779" type="curve"/>
      <point x="409" y="778" type="line"/>
      <point x="358" y="714"/>
      <point x="304" y="650"/>
    </contour>
  </outline>
</glyph>
<glyph name="dotbelowcomb" format="2">
  <unicode hex="0323"/>
  <anchor x="248" y="0" name="_bottom"/>
  <anchor x="248" y="0" name="bottom"/>
  <outline>
    <contour>
      <point x="206" y="-202" type="curve" smooth="yes"/>
      <point x="231" y="-202"/>
      <point x="245" y="-189"/>
      <point x="252" y="-157" type="curve" smooth="yes"/>
      <point x="258" y="-129"/>
      <point x="247" y="-115"/>
      <point x="223" y="-115" type="curve" smooth="yes"/>
      <point x="199" y="-115"/>
      <point x="185" y="-121"/>
      <point x="179" y="-146" type="curve" smooth="yes"/>
      <point x="170" y="-182"/>
      <point x="180" y="-202"/>
    </contour>
  </outline>
</glyph>
<glyph name="commaaccentcomb" format="2">
  <unicode hex="0326"/>
  <anchor x="248" y="0" name="_bottom"/>
  <anchor x="189" y="-273" name="bottom"/>
  <outline>
    <contour>
      <point x="138" y="-282" type="curve"/>
      <point x="163" y="-281" type="line"/>
      <point x="201" y="-248"/>
      <point x="242" y="-200"/>
      <point x="250" y="-159" type="curve" smooth="yes"/>
      <point x="255" y="-136"/>
      <point x="245" y="-116"/>
      <point x="227" y="-115" type="curve"/>
      <point x="204" y="-116" type="line"/>
      <point x="201" y="-132"/>
      <point x="199" y="-149"/>
      <point x="195" y="-165" type="curve"/>
      <point x="186" y="-211"/>
      <point x="174" y="-245"/>
    </contour>
  </outline>
</glyph>
<glyph name="Germandbls" format="2">
  <advance width="706"/>
  <unicode hex="1E9E"/>
  <outline>
    <contour>
      <point x="374" y="-8" type="curve" smooth="yes"/>
      <point x="535" y="-8"/>
      <point x="619" y="60"/>
      <point x="640" y="162" type="curve" smooth="yes"/>
      <point x="663" y="273"/>
      <point x="592" y="372"/>
      <point x="399" y="397" type="curve"/>
      <point x="403" y="381" type="line"/>
      <point x="530" y="488" type="line"/>
      <point x="579" y="529"/>
      <point x="626" y="568"/>
      <point x="674" y="607" type="curve"/>
      <point x="688" y="648" type="line"/>
      <point x="654" y="674"/>
      <point x="553" y="725"/>
      <point x="439" y="725" type="curve" smooth="yes"/>
      <point x="265" y="725"/>
      <point x="180" y="627"/>
      <point x="147" y="478" type="curve" smooth="yes"/>
      <point x="130" y="398"/>
      <point x="113" y="315"/>
      <point x="96" y="238" type="curve"/>
      <point x="78" y="151"/>
      <point x="63" y="81"/>
      <point x="44" y="0" type="curve"/>
      <point x="81" y="0" type="line"/>
      <point x="95" y="81"/>
      <point x="109" y="149"/>
      <point x="128" y="238" type="curve"/>
      <point x="179" y="470" type="line" smooth="yes"/>
      <point x="210" y="610"/>
      <point x="276" y="691"/>
      <point x="439" y="692" type="curve"/>
      <point x="529" y="691"/>
      <point x="613" y="662"/>
      <point x="661" y="625" type="curve"/>
      <point x="662" y="640" type="line"/>
      <point x="519" y="520" type="line"/>
      <point x="471" y="480"/>
      <point x="422" y="440"/>
      <point x="374" y="401" type="curve"/>
      <point x="368" y="369" type="line"/>
      <point x="553" y="350"/>
      <point x="630" y="273"/>
      <point x="608" y="167" type="curve" smooth="yes"/>
      <point x="585" y="58"/>
      <point x="488" y="26"/>
      <point x="375" y="25" type="curve"/>
      <point x="317" y="26"/>
      <point x="269" y="36"/>
      <point x="227" y="54" type="curve"/>
      <point x="219" y="16" type="line"/>
      <point x="262" y="4"/>
      <point x="314" y="-8"/>
    </contour>
  </outline>
</glyph>
<glyph name="dagger" format="2">
  <advance width="560"/>
  <unicode hex="2020"/>
  <outline>
    <contour>
      <point x="209" y="0" type="curve"/>
      <point x="245" y="0" type="line"/>
      <point x="274" y="150"/>
      <point x="301" y="276"/>
      <point x="334" y="431" type="curve"/>
      <point x="338" y="447" type="line"/>
      <point x="356" y="532"/>
      <point x="374" y="612"/>
      <point x="391" y="684" type="curve"/>
      <point x="355" y="684" type="line"/>
      <point x="342" y="612"/>
      <point x="326" y="532"/>
      <point x="308" y="447" type="curve"/>
      <point x="304" y="431" type="line"/>
      <point x="271" y="276"/>
      <point x="244" y="150"/>
    </contour>
    <contour>
      <point x="98" y="428" type="line"/>
      <point x="157" y="430"/>
      <point x="212" y="430"/>
      <point x="259" y="430" type="curve"/>
      <point x="379" y="430" type="line"/>
      <point x="426" y="430"/>
      <point x="481" y="430"/>
      <point x="538" y="428" type="curve"/>
      <point x="546" y="462" type="line"/>
      <point x="487" y="460"/>
      <point x="432" y="460"/>
      <point x="385" y="460" type="curve"/>
      <point x="265" y="460" type="line"/>
      <point x="218" y="460"/>
      <point x="163" y="460"/>
      <point x="106" y="462" type="curve"/>
    </contour>
  </outline>
</glyph>
<glyph name="minute" format="2">
  <advance width="228"/>
  <unicode hex="2032"/>
  <outline>
    <contour>
      <point x="114" y="407" type="curve"/>
      <point x="141" y="408" type="line"/>
      <point x="171" y="501"/>
      <point x="205" y="594"/>
      <point x="242" y="685" type="curve"/>
      <point x="188" y="684" type="line"/>
      <point x="168" y="593"/>
      <point x="144" y="501"/>
    </contour>
  </outline>
</glyph>
<glyph name="guilsinglleft" format="2">
  <advance width="307"/>
  <unicode hex="2039"/>
  <outline>
    <contour>
      <point x="181" y="-2" type="curve"/>
      <point x="217" y="0" type="line"/>
      <point x="168" y="80"/>
      <point x="120" y="161"/>
      <point x="73" y="241" type="curve"/>
      <point x="74" y="247" type="line"/>
      <point x="156" y="331"/>
      <point x="238" y="414"/>
      <point x="322" y="498" type="curve"/>
      <point x="279" y="500" type="line"/>
      <point x="199" y="416"/>
      <point x="117" y="333"/>
      <point x="35" y="249" type="curve"/>
      <point x="84" y="165"/>
      <point x="134" y="82"/>
    </contour>
  </outline>
</glyph>
<glyph name="colonsign" format="2">
  <advance width="656"/>
  <unicode hex="20A1"/>
  <outline>
    <contour>
      <point x="363" y="-9" type="curve" smooth="yes"/>
      <point x="427" y="-9"/>
      <point x="501" y="10"/>
      <point x="555" y="39" type="curve"/>
      <point x="557" y="81" type="line"/>
      <point x="499" y="44"/>
      <point x="428" y="23"/>
      <point x="362" y="23" type="curve"/>
      <point x="156" y="25"/>
      <point x="79" y="196"/>
      <point x="117" y="377" type="curve" smooth="yes"/>
      <point x="158" y="571"/>
      <point x="288" y="662"/>
      <point x="464" y="664" type="curve"/>
      <point x="502" y="664"/>
      <point x="581" y="646"/>
      <point x="674" y="600" type="curve"/>
      <point x="686" y="633" type="line"/>
      <point x="630" y="660"/>
      <point x="538" y="696"/>
      <point x="466" y="696" type="curve" smooth="yes"/>
      <point x="276" y="696"/>
      <point x="130" y="590"/>
      <point x="86" y="383" type="curve" smooth="yes"/>
      <point x="44" y="183"/>
      <point x="139" y="-9"/>
    </contour>
    <contour>
      <point x="99" y="-137" type="curve"/>
      <point x="134" y="-137" type="line"/>
      <point x="182" y="-20"/>
      <point x="226" y="84"/>
      <point x="272" y="192" type="curve"/>
      <point x="392" y="474" type="line"/>
      <point x="438" y="582"/>
      <point x="482" y="686"/>
      <point x="534" y="803" type="curve"/>
      <point x="499" y="803" type="line"/>
      <point x="451" y="686"/>
      <point x="407" y="582"/>
      <point x="361" y="474" type="curve"/>
      <point x="241" y="192" type="line"/>
      <point x="195" y="84"/>
      <point x="151" y="-20"/>
    </contour>
    <contour>
      <point x="226" y="-137" type="curve"/>
      <point x="261" y="-137" type="line"/>
      <point x="309" y="-20"/>
      <point x="353" y="84"/>
      <point x="399" y="192" type="curve"/>
      <point x="519" y="474" type="line"/>
      <point x="565" y="582"/>
      <point x="609" y="686"/>
      <point x="661" y="803" type="curve"/>
      <point x="626" y="803" type="line"/>
      <point x="578" y="686"/>
      <point x="534" y="582"/>
      <point x="488" y="474" type="curve"/>
      <point x="368" y="192" type="line"/>
      <point x="322" y="84"/>
      <point x="278" y="-20"/>
    </contour>
  </outline>
</glyph>
<glyph name="cedi" format="2">
  <advance width="656"/>
  <unicode hex="20B5"/>
  <outline>
    <contour>
      <point x="272" y="-137" type="curve"/>
      <point x="306" y="-137" type="line"/>
      <point x="329" y="-20"/>
      <point x="351" y="84"/>
      <point x="374" y="192" type="curve"/>
      <point x="434" y="474" type="line"/>
      <point x="457" y="582"/>
      <point x="479" y="686"/>
      <point x="506" y="803" type="curve"/>
      <point x="472" y="803" type="line"/>
      <point x="449" y="686"/>
      <point x="427" y="582"/>
      <point x="404" y="474" type="curve"/>
      <point x="344" y="192" type="line"/>
      <point x="321" y="84"/>
      <point x="299" y="-20"/>
    </contour>
    <contour>
      <point x="363" y="-9" type="curve" smooth="yes"/>
      <point x="427" y="-9"/>
      <point x="501" y="10"/>
      <point x="555" y="39" type="curve"/>
      <point x="557" y="81" type="line"/>
      <point x="499" y="44"/>
      <point x="428" y="23"/>
      <point x="362" y="23" type="curve"/>
      <point x="156" y="25"/>
      <point x="79" y="196"/>
      <point x="117" y="377" type="curve" smooth="yes"/>
      <point x="158" y="571"/>
      <point x="288" y="662"/>
      <point x="464" y="664" type="curve"/>
      <point x="502" y="664"/>
      <point x="581" y="646"/>
      <point x="674" y="600" type="curve"/>
      <point x="686" y="633" type="line"/>
      <point x="630" y="660"/>
      <point x="538" y="696"/>
      <point x="466" y="696" type="curve" smooth="yes"/>
      <point x="276" y="696"/>
      <point x="130" y="590"/>
      <point x="86" y="383" type="curve" smooth="yes"/>
      <point x="44" y="183"/>
      <point x="139" y="-9"/>
    </contour>
  </outline>
</glyph>
<glyph name="Ohm" format="2">
  <advance width="795"/>
  <unicode hex="2126"/>
  <outline>
    <contour>
      <point x="-13" y="0" type="line"/>
      <point x="266" y="0" type="line"/>
      <point x="278" y="67"/>
      <point x="290" y="124"/>
      <point x="305" y="195" type="curve"/>
      <point x="179" y="274"/>
      <point x="135" y="380"/>
      <point x="156" y="479" type="curve" smooth="yes"/>
      <point x="183" y="608"/>
      <point x="266" y="688"/>
      <point x="458" y="692" type="curve"/>
      <point x="656" y="688"/>
      <point x="755" y="569"/>
      <point x="724" y="420" type="curve" smooth="yes"/>
      <point x="702" y="316"/>
      <point x="626" y="249"/>
      <point x="466" y="195" type="curve"/>
      <point x="451" y="123"/>
      <point x="439" y="67"/>
      <point x="423" y="0" type="curve"/>
      <point x="702" y="0" type="line"/>
      <point x="709" y="35" type="line"/>
      <point x="653" y="31"/>
      <point x="606" y="31"/>
      <point x="524" y="31" type="curve"/>
      <point x="448" y="31" type="line"/>
      <point x="463" y="16" type="line"/>
      <point x="474" y="78"/>
      <point x="485" y="129"/>
      <point x="499" y="195" type="curve"/>
      <point x="466" y="158" type="line"/>
      <point x="627" y="218"/>
      <point x="728" y="283"/>
      <point x="756" y="415" type="curve" smooth="yes"/>
      <point x="790" y="577"/>
      <point x="673" y="725"/>
      <point x="460" y="725" type="curve" smooth="yes"/>
      <point x="267" y="725"/>
      <point x="156" y="635"/>
      <point x="124" y="484" type="curve" smooth="yes"/>
      <point x="99" y="367"/>
      <point x="158" y="248"/>
      <point x="293" y="162" type="curve"/>
      <point x="273" y="195" type="line"/>
      <point x="259" y="129"/>
      <point x="248" y="78"/>
      <point x="233" y="16" type="curve"/>
      <point x="255" y="31" type="line"/>
      <point x="179" y="31" type="line"/>
      <point x="97" y="31"/>
      <point x="50" y="31"/>
      <point x="-6" y="35" type="curve"/>
    </contour>
  </outline>
</glyph>
<glyph name="estimated" format="2">
  <advance width="843"/>
  <unicode hex="212E"/>
  <outline>
    <contour>
      <point x="452" y="-9" type="curve" smooth="yes"/>
      <point x="604" y="-9"/>
      <point x="729" y="45"/>
      <point x="798" y="179" type="curve"/>
      <point x="731" y="179" type="line"/>
      <point x="685" y="63"/>
      <point x="589" y="16"/>
      <point x="452" y="16" type="curve" smooth="yes"/>
      <point x="221" y="16"/>
      <point x="89" y="145"/>
      <point x="89" y="343" type="curve" smooth="yes"/>
      <point x="89" y="540"/>
      <point x="223" y="671"/>
      <point x="435" y="671" type="curve" smooth="yes"/>
      <point x="649" y="671"/>
      <point x="769" y="552"/>
      <point x="782" y="342" type="curve"/>
      <point x="817" y="334" type="line"/>
      <point x="806" y="569"/>
      <point x="660" y="696"/>
      <point x="435" y="696" type="curve" smooth="yes"/>
      <point x="212" y="696"/>
      <point x="54" y="556"/>
      <point x="54" y="343" type="curve" smooth="yes"/>
      <point x="54" y="127"/>
      <point x="212" y="-9"/>
    </contour>
    <contour>
      <point x="154" y="124" type="curve"/>
      <point x="154" y="568" type="line"/>
      <point x="95" y="498"/>
      <point x="67" y="420"/>
      <point x="67" y="346" type="curve" smooth="yes"/>
      <point x="67" y="272"/>
      <point x="95" y="183"/>
    </contour>
    <contour>
      <point x="75" y="334" type="line"/>
      <point x="817" y="334" type="line"/>
      <point x="804" y="363" type="line"/>
      <point x="75" y="363" type="line"/>
    </contour>
    <contour>
      <point x="715" y="346" type="line"/>
      <point x="802" y="346" type="line"/>
      <point x="794" y="420"/>
      <point x="774" y="498"/>
      <point x="715" y="568" type="curve"/>
    </contour>
  </outline>
</glyph>
<glyph name="approxequal" format="2">
  <advance width="560"/>
  <unicode hex="2248"/>
  <outline>
    <contour>
      <point x="422" y="325" type="curve" smooth="yes"/>
      <point x="477" y="325"/>
      <point x="515" y="363"/>
      <point x="530" y="436" type="curve"/>
      <point x="501" y="436" type="line"/>
      <point x="484" y="380"/>
      <point x="465" y="358"/>
      <point x="422" y="356" type="curve"/>
      <point x="349" y="358"/>
      <point x="279" y="449"/>
      <point x="199" y="449" type="curve" smooth="yes"/>
      <point x="144" y="449"/>
      <point x="105" y="410"/>
      <point x="89" y="338" type="curve"/>
      <point x="118" y="338" type="line"/>
      <point x="135" y="394"/>
      <point x="156" y="416"/>
      <point x="198" y="418" type="curve"/>
      <point x="272" y="416"/>
      <point x="342" y="325"/>
    </contour>
    <contour>
      <point x="379" y="123" type="curve" smooth="yes"/>
      <point x="434" y="123"/>
      <point x="472" y="162"/>
      <point x="487" y="234" type="curve"/>
      <point x="458" y="234" type="line"/>
      <point x="441" y="178"/>
      <point x="422" y="156"/>
      <point x="379" y="154" type="curve"/>
      <point x="306" y="156"/>
      <point x="236" y="247"/>
      <point x="156" y="247" type="curve" smooth="yes"/>
      <point x="101" y="247"/>
      <point x="62" y="208"/>
      <point x="46" y="136" type="curve"/>
      <point x="75" y="136" type="line"/>
      <point x="92" y="192"/>
      <point x="113" y="214"/>
      <point x="155" y="216" type="curve"/>
      <point x="229" y="214"/>
      <point x="299" y="123"/>
    </contour>
  </outline>
</glyph>
<glyph name="greaterequal" format="2">
  <advance width="560"/>
  <unicode hex="2265"/>
  <outline>
    <contour>
      <point x="17" y="-2" type="line"/>
      <point x="75" y="0"/>
      <point x="130" y="0"/>
      <point x="177" y="0" type="curve"/>
      <point x="277" y="0" type="line"/>
      <point x="324" y="0"/>
      <point x="379" y="0"/>
      <point x="437" y="-2" type="curve"/>
      <point x="444" y="32" type="line"/>
      <point x="386" y="30"/>
      <point x="331" y="30"/>
      <point x="284" y="30" type="curve"/>
      <point x="184" y="30" type="line"/>
      <point x="137" y="30"/>
      <point x="82" y="30"/>
      <point x="24" y="32" type="curve"/>
    </contour>
    <contour>
      <point x="52" y="160" type="line"/>
      <point x="115" y="187"/>
      <point x="176" y="213"/>
      <point x="229" y="235" type="curve"/>
      <point x="338" y="280" type="line"/>
      <point x="389" y="301"/>
      <point x="450" y="326"/>
      <point x="512" y="350" type="curve"/>
      <point x="520" y="386" type="line"/>
      <point x="468" y="410"/>
      <point x="417" y="435"/>
      <point x="376" y="456" type="curve"/>
      <point x="285" y="501" type="line"/>
      <point x="242" y="523"/>
      <point x="191" y="550"/>
      <point x="140" y="576" type="curve"/>
      <point x="132" y="540" type="line"/>
      <point x="205" y="508"/>
      <point x="282" y="470"/>
      <point x="356" y="433" type="curve"/>
      <point x="475" y="374" type="line"/>
      <point x="473" y="368" type="line"/>
      <point x="330" y="309" type="line"/>
      <point x="240" y="272"/>
      <point x="147" y="234"/>
      <point x="60" y="202" type="curve"/>
    </contour>
  </outline>
</glyph>
<glyph name="H.bar" format="2">
  <advance width="750"/>
  <anchor x="323" y="0" name="bottom"/>
  <anchor x="398" y="357" name="center"/>
  <anchor x="473" y="713" name="top"/>
  <anchor x="134" y="713" name="topleft"/>
  <outline>
    <contour>
      <point x="553" y="0" type="curve"/>
      <point x="590" y="0" type="line"/>
      <point x="604" y="81"/>
      <point x="618" y="149"/>
      <point x="637" y="238" type="curve"/>
      <point x="687" y="473" type="line"/>
      <point x="706" y="562"/>
      <point x="721" y="632"/>
      <point x="740" y="713" type="curve"/>
      <point x="703" y="713" type="line"/>
      <point x="688" y="632"/>
      <point x="674" y="562"/>
      <point x="655" y="473" type="curve"/>
      <point x="605" y="238" type="line"/>
      <point x="587" y="151"/>
      <point x="572" y="81"/>
    </contour>
    <contour>
      <point x="56" y="0" type="curve"/>
      <point x="93" y="0" type="line"/>
      <point x="107" y="81"/>
      <point x="121" y="149"/>
      <point x="140" y="238" type="curve"/>
      <point x="190" y="473" type="line"/>
      <point x="209" y="562"/>
      <point x="224" y="632"/>
      <point x="243" y="713" type="curve"/>
      <point x="206" y="713" type="line"/>
      <point x="191" y="632"/>
      <point x="177" y="562"/>
      <point x="158" y="473" type="curve"/>
      <point x="108" y="238" type="line"/>
      <point x="90" y="151"/>
      <point x="75" y="81"/>
    </contour>
    <contour>
      <point x="142" y="347" type="line"/>
      <point x="652" y="347" type="line"/>
      <point x="659" y="378" type="line"/>
      <point x="149" y="378" type="line"/>
    </contour>
  </outline>
</glyph>
<glyph name="OE.001" format="2">
  <advance width="1207"/>
  <anchor x="551.499" y="0" name="bottom"/>
  <anchor x="703.051" y="713" name="top"/>
  <outline>
    <contour>
      <point x="403" y="-9" type="curve" smooth="yes"/>
      <point x="589" y="-9"/>
      <point x="729" y="121"/>
      <point x="769" y="309" type="curve"/>
      <point x="769" y="312" type="line"/>
      <point x="816" y="532"/>
      <point x="694" y="725"/>
      <point x="469" y="725" type="curve" smooth="yes"/>
      <point x="277" y="725"/>
      <point x="132" y="597"/>
      <point x="88" y="393" type="curve" smooth="yes"/>
      <point x="42" y="176"/>
      <point x="172" y="-9"/>
    </contour>
    <contour>
      <point x="403" y="24" type="curve"/>
      <point x="197" y="28"/>
      <point x="76" y="177"/>
      <point x="120" y="387" type="curve" smooth="yes"/>
      <point x="159" y="566"/>
      <point x="274" y="688"/>
      <point x="469" y="692" type="curve"/>
      <point x="670" y="688"/>
      <point x="785" y="529"/>
      <point x="740" y="316" type="curve" smooth="yes"/>
      <point x="706" y="154"/>
      <point x="592" y="28"/>
    </contour>
    <contour>
      <point x="672" y="0" type="curve"/>
      <point x="709" y="0" type="line"/>
      <point x="710" y="4" type="line"/>
      <point x="724" y="85"/>
      <point x="738" y="154"/>
      <point x="757" y="242" type="curve"/>
      <point x="806" y="472" type="line"/>
      <point x="824" y="560"/>
      <point x="840" y="629"/>
      <point x="859" y="710" type="curve"/>
      <point x="859" y="713" type="line"/>
      <point x="822" y="713" type="line"/>
      <point x="807" y="632"/>
      <point x="793" y="562"/>
      <point x="774" y="473" type="curve"/>
      <point x="724" y="238" type="line"/>
      <point x="706" y="151"/>
      <point x="691" y="81"/>
    </contour>
    <contour>
      <point x="700" y="0" type="line"/>
      <point x="1092" y="0" type="line"/>
      <point x="1099" y="32" type="line"/>
      <point x="1022" y="31"/>
      <point x="940" y="31"/>
      <point x="847" y="31" type="curve"/>
      <point x="707" y="31" type="line"/>
    </contour>
    <contour>
      <point x="773" y="347" type="line"/>
      <point x="917" y="347" type="line"/>
      <point x="1011" y="347"/>
      <point x="1074" y="347"/>
      <point x="1143" y="346" type="curve"/>
      <point x="1150" y="379" type="line"/>
      <point x="1085" y="378"/>
      <point x="1021" y="378"/>
      <point x="925" y="378" type="curve"/>
      <point x="780" y="378" type="line"/>
    </contour>
    <contour>
      <point x="843" y="682" type="line"/>
      <point x="979" y="682" type="line"/>
      <point x="1089" y="682"/>
      <point x="1165" y="682"/>
      <point x="1236" y="681" type="curve"/>
      <point x="1243" y="713" type="line"/>
      <point x="850" y="713" type="line"/>
    </contour>
  </outline>
</glyph>
<glyph name=".notdef" format="2">
  <advance width="635"/>
  <outline>
    <contour>
      <point x="-43" y="-192" type="line"/>
      <point x="492" y="-192" type="line"/>
      <point x="706" y="818" type="line"/>
      <point x="171" y="818" type="line"/>
    </contour>
    <contour>
      <point x="262" y="9" type="curve" smooth="yes"/>
      <point x="285" y="9"/>
      <point x="297" y="17"/>
      <point x="303" y="45" type="curve" smooth="yes"/>
      <point x="308" y="69"/>
      <point x="291" y="83"/>
      <point x="268" y="83" type="curve" smooth="yes"/>
      <point x="246" y="83"/>
      <point x="233" y="76"/>
      <point x="229" y="54" type="curve" smooth="yes"/>
      <point x="224" y="27"/>
      <point x="237" y="9"/>
    </contour>
    <contour>
      <point x="-6" y="-162" type="line"/>
      <point x="195" y="788" type="line"/>
      <point x="669" y="788" type="line"/>
      <point x="468" y="-162" type="line"/>
    </contour>
    <contour>
      <point x="323" y="191" type="curve" smooth="yes"/>
      <point x="342" y="191"/>
      <point x="365" y="195"/>
      <point x="377" y="197" type="curve"/>
      <point x="381" y="224" type="line"/>
      <point x="367" y="220"/>
      <point x="341" y="214"/>
      <point x="325" y="214" type="curve"/>
      <point x="287" y="215"/>
      <point x="258" y="234"/>
      <point x="267" y="277" type="curve" smooth="yes"/>
      <point x="275" y="317"/>
      <point x="317" y="343"/>
      <point x="366" y="373" type="curve" smooth="yes"/>
      <point x="431" y="413"/>
      <point x="489" y="448"/>
      <point x="503" y="517" type="curve" smooth="yes"/>
      <point x="518" y="591"/>
      <point x="471" y="640"/>
      <point x="394" y="640" type="curve" smooth="yes"/>
      <point x="357" y="640"/>
      <point x="305" y="623"/>
      <point x="269" y="611" type="curve"/>
      <point x="266" y="580" type="line"/>
      <point x="320" y="603"/>
      <point x="368" y="613"/>
      <point x="392" y="613" type="curve"/>
      <point x="458" y="612"/>
      <point x="490" y="578"/>
      <point x="477" y="522" type="curve" smooth="yes"/>
      <point x="464" y="464"/>
      <point x="414" y="432"/>
      <point x="353" y="394" type="curve" smooth="yes"/>
      <point x="300" y="361"/>
      <point x="252" y="331"/>
      <point x="242" y="280" type="curve" smooth="yes"/>
      <point x="232" y="229"/>
      <point x="267" y="191"/>
    </contour>
  </outline>
</glyph>
<glyph name="_strokeshortcomb.Eth" format="2">
  <advance width="739"/>
  <anchor x="393.381" y="357" name="_center"/>
  <outline>
    <contour>
      <point x="7" y="329" type="line"/>
      <point x="69" y="331"/>
      <point x="126" y="331"/>
      <point x="175" y="331" type="curve"/>
      <point x="221" y="331" type="line"/>
      <point x="270" y="331"/>
      <point x="327" y="331"/>
      <point x="387" y="329" type="curve"/>
      <point x="394" y="363" type="line"/>
      <point x="333" y="361"/>
      <point x="276" y="361"/>
      <point x="227" y="361" type="curve"/>
      <point x="181" y="361" type="line"/>
      <point x="132" y="361"/>
      <point x="75" y="361"/>
      <point x="14" y="363" type="curve"/>
    </contour>
  </outline>
</glyph>
<glyph name="_strokeshortcomb.Tbar" format="2">
  <advance width="739"/>
  <anchor x="393.381" y="357" name="_center"/>
  <outline>
    <contour>
      <point x="198" y="329" type="line"/>
      <point x="260" y="331"/>
      <point x="317" y="331"/>
      <point x="366" y="331" type="curve"/>
      <point x="412" y="331" type="line"/>
      <point x="461" y="331"/>
      <point x="518" y="331"/>
      <point x="578" y="329" type="curve"/>
      <point x="585" y="363" type="line"/>
      <point x="524" y="361"/>
      <point x="467" y="361"/>
      <point x="418" y="361" type="curve"/>
      <point x="372" y="361" type="line"/>
      <point x="323" y="361"/>
      <point x="266" y="361"/>
      <point x="205" y="363" type="curve"/>
    </contour>
  </outline>
</glyph>
<glyph name="acutecomb.case" format="2">
  <anchor x="352" y="494" name="_top"/>
  <anchor x="389" y="676" name="top"/>
  <outline>
    <contour>
      <point x="313" y="576" type="curve"/>
      <point x="350" y="577" type="line"/>
      <point x="416" y="635"/>
      <point x="480" y="692"/>
      <point x="542" y="751" type="curve"/>
      <point x="493" y="751" type="line"/>
      <point x="435" y="692"/>
      <point x="375" y="634"/>
    </contour>
  </outline>
</glyph>
<glyph name="brevecomb_acutecomb.case" format="2">
  <anchor x="352" y="494" name="_top"/>
  <outline>
    <contour>
      <point x="379" y="575" type="curve" smooth="yes"/>
      <point x="470" y="575"/>
      <point x="521" y="638"/>
      <point x="538" y="718" type="curve"/>
      <point x="509" y="718" type="line"/>
      <point x="494" y="646"/>
      <point x="450" y="608"/>
      <point x="378" y="606" type="curve"/>
      <point x="306" y="608"/>
      <point x="267" y="645"/>
      <point x="282" y="719" type="curve"/>
      <point x="253" y="718" type="line"/>
      <point x="236" y="638"/>
      <point x="289" y="575"/>
    </contour>
    <contour>
      <point x="344" y="724" type="curve"/>
      <point x="381" y="725" type="line"/>
      <point x="447" y="783"/>
      <point x="511" y="840"/>
      <point x="573" y="899" type="curve"/>
      <point x="524" y="899" type="line"/>
      <point x="466" y="840"/>
      <point x="406" y="782"/>
    </contour>
  </outline>
</glyph>
<glyph name="circumflexcomb_gravecomb.case" format="2">
  <anchor x="352" y="494" name="_top"/>
  <outline>
    <contour>
      <point x="566" y="711" type="curve"/>
      <point x="596" y="712" type="line"/>
      <point x="559" y="770"/>
      <point x="522" y="832"/>
      <point x="488" y="886" type="curve"/>
      <point x="449" y="886" type="line"/>
      <point x="486" y="826"/>
      <point x="527" y="769"/>
    </contour>
    <contour>
      <point x="203" y="577" type="curve"/>
      <point x="240" y="577" type="line"/>
      <point x="305" y="635"/>
      <point x="365" y="690"/>
      <point x="426" y="750" type="curve"/>
      <point x="381" y="750" type="line"/>
      <point x="323" y="691"/>
      <point x="264" y="635"/>
    </contour>
    <contour>
      <point x="503" y="575" type="curve"/>
      <point x="533" y="576" type="line"/>
      <point x="497" y="634"/>
      <point x="459" y="694"/>
      <point x="426" y="750" type="curve"/>
      <point x="387" y="750" type="line"/>
      <point x="424" y="690"/>
      <point x="464" y="633"/>
    </contour>
  </outline>
</glyph>
<glyph name="circumflexcomb_hookabovecomb.case" format="2">
  <anchor x="352" y="494" name="_top"/>
  <outline>
    <contour>
      <point x="203" y="577" type="curve"/>
      <point x="240" y="577" type="line"/>
      <point x="305" y="635"/>
      <point x="365" y="690"/>
      <point x="426" y="750" type="curve"/>
      <point x="381" y="750" type="line"/>
      <point x="323" y="691"/>
      <point x="264" y="635"/>
    </contour>
    <contour>
      <point x="503" y="575" type="curve"/>
      <point x="533" y="576" type="line"/>
      <point x="497" y="634"/>
      <point x="459" y="694"/>
      <point x="426" y="750" type="curve"/>
      <point x="387" y="750" type="line"/>
      <point x="424" y="690"/>
      <point x="464" y="633"/>
    </contour>
    <contour>
      <point x="519" y="704" type="line"/>
      <point x="549" y="704" type="line"/>
      <point x="557" y="739" type="line"/>
      <point x="601" y="744"/>
      <point x="649" y="766"/>
      <point x="661" y="819" type="curve" smooth="yes"/>
      <point x="672" y="869"/>
      <point x="636" y="904"/>
      <point x="585" y="904" type="curve" smooth="yes"/>
      <point x="557" y="904"/>
      <point x="516" y="892"/>
      <point x="490" y="881" type="curve"/>
      <point x="485" y="847" type="line"/>
      <point x="525" y="866"/>
      <point x="562" y="873"/>
      <point x="582" y="873" type="curve"/>
      <point x="618" y="872"/>
      <point x="639" y="856"/>
      <point x="632" y="823" type="curve" smooth="yes"/>
      <point x="625" y="789"/>
      <point x="589" y="764"/>
      <point x="530" y="757" type="curve"/>
    </contour>
  </outline>
</glyph>
<glyph name="colonsign.BRACKET.140" format="2">
  <advance width="656"/>
  <outline>
    <contour>
      <point x="363" y="-9" type="curve" smooth="yes"/>
      <point x="427" y="-9"/>
      <point x="501" y="10"/>
      <point x="555" y="39" type="curve"/>
      <point x="557" y="81" type="line"/>
      <point x="499" y="44"/>
      <point x="428" y="23"/>
      <point x="362" y="23" type="curve"/>
      <point x="156" y="25"/>
      <point x="79" y="196"/>
      <point x="117" y="377" type="curve" smooth="yes"/>
      <point x="158" y="571"/>
      <point x="288" y="662"/>
      <point x="464" y="664" type="curve"/>
      <point x="502" y="664"/>
      <point x="581" y="646"/>
      <point x="674" y="600" type="curve"/>
      <point x="686" y="633" type="line"/>
      <point x="630" y="660"/>
      <point x="538" y="696"/>
      <point x="466" y="696" type="curve" smooth="yes"/>
      <point x="276" y="696"/>
      <point x="130" y="590"/>
      <point x="86" y="383" type="curve" smooth="yes"/>
      <point x="44" y="183"/>
      <point x="139" y="-9"/>
    </contour>
    <contour>
      <point x="99" y="-137" type="curve"/>
      <point x="134" y="-137" type="line"/>
      <point x="162" y="-69"/>
      <point x="189" y="-4"/>
      <point x="215" y="57" type="curve"/>
      <point x="184" y="57" type="line"/>
      <point x="156" y="-9"/>
      <point x="129" y="-69"/>
    </contour>
    <contour>
      <point x="226" y="-137" type="curve"/>
      <point x="261" y="-137" type="line"/>
      <point x="282" y="-86"/>
      <point x="301" y="-38"/>
      <point x="321" y="9" type="curve"/>
      <point x="290" y="9" type="line"/>
      <point x="270" y="-38"/>
      <point x="249" y="-86"/>
    </contour>
    <contour>
      <point x="447" y="675" type="curve"/>
      <point x="478" y="675" type="line"/>
      <point x="495" y="715"/>
      <point x="514" y="759"/>
      <point x="534" y="803" type="curve"/>
      <point x="499" y="803" type="line"/>
      <point x="481" y="759"/>
      <point x="464" y="715"/>
    </contour>
    <contour>
      <point x="565" y="655" type="curve"/>
      <point x="596" y="655" type="line"/>
      <point x="616" y="703"/>
      <point x="638" y="752"/>
      <point x="661" y="803" type="curve"/>
      <point x="626" y="803" type="line"/>
      <point x="606" y="753"/>
      <point x="585" y="702"/>
    </contour>
  </outline>
</glyph>
<glyph name="dblgravecomb.case" format="2">
  <anchor x="352" y="494" name="_top"/>
  <anchor x="398" y="716" name="top"/>
  <outline>
    <contour>
      <point x="294" y="576" type="curve"/>
      <point x="324" y="577" type="line"/>
      <point x="287" y="635"/>
      <point x="250" y="697"/>
      <point x="216" y="751" type="curve"/>
      <point x="177" y="751" type="line"/>
      <point x="214" y="691"/>
      <point x="255" y="634"/>
    </contour>
    <contour>
      <point x="460" y="576" type="curve"/>
      <point x="488" y="577" type="line"/>
      <point x="457" y="635"/>
      <point x="428" y="697"/>
      <point x="400" y="751" type="curve"/>
      <point x="363" y="751" type="line"/>
      <point x="394" y="693"/>
      <point x="427" y="634"/>
    </contour>
  </outline>
</glyph>
<glyph name="dotaccentcomb.case" format="2">
  <anchor x="151" y="494" name="_top"/>
  <anchor x="186" y="665" name="top"/>
  <outline>
    <contour>
      <point x="178" y="618" type="curve" smooth="yes"/>
      <point x="203" y="618"/>
      <point x="217" y="631"/>
      <point x="224" y="663" type="curve" smooth="yes"/>
      <point x="230" y="691"/>
      <point x="219" y="705"/>
      <point x="195" y="705" type="curve" smooth="yes"/>
      <point x="171" y="705"/>
      <point x="157" y="699"/>
      <point x="151" y="674" type="curve" smooth="yes"/>
      <point x="142" y="638"/>
      <point x="152" y="618"/>
    </contour>
  </outline>
</glyph>
<glyph name="guarani.BRACKET.140" format="2">
  <advance width="706"/>
  <outline>
    <contour>
      <point x="376" y="-9" type="curve" smooth="yes"/>
      <point x="446" y="-9"/>
      <point x="530" y="13"/>
      <point x="582" y="35" type="curve"/>
      <point x="579" y="72" type="line"/>
      <point x="510" y="38"/>
      <point x="441" y="23"/>
      <point x="377" y="23" type="curve"/>
      <point x="149" y="25"/>
      <point x="79" y="196"/>
      <point x="117" y="377" type="curve" smooth="yes"/>
      <point x="159" y="575"/>
      <point x="286" y="662"/>
      <point x="459" y="664" type="curve"/>
      <point x="499" y="664"/>
      <point x="583" y="645"/>
      <point x="681" y="595" type="curve"/>
      <point x="693" y="628" type="line"/>
      <point x="633" y="657"/>
      <point x="535" y="696"/>
      <point x="458" y="696" type="curve" smooth="yes"/>
      <point x="267" y="696"/>
      <point x="129" y="586"/>
      <point x="86" y="383" type="curve" smooth="yes"/>
      <point x="44" y="183"/>
      <point x="134" y="-9"/>
    </contour>
    <contour>
      <point x="547" y="35" type="curve"/>
      <point x="582" y="35" type="line"/>
      <point x="594" y="100"/>
      <point x="604" y="145"/>
      <point x="614" y="192" type="curve"/>
      <point x="627" y="251"/>
      <point x="636" y="289"/>
      <point x="648" y="335" type="curve"/>
      <point x="612" y="335" type="line"/>
      <point x="604" y="289"/>
      <point x="596" y="251"/>
      <point x="583" y="192" type="curve"/>
      <point x="573" y="145"/>
      <point x="563" y="100"/>
    </contour>
    <contour>
      <point x="274" y="-137" type="curve"/>
      <point x="308" y="-137" type="line"/>
      <point x="318" y="-86"/>
      <point x="327" y="-38"/>
      <point x="337" y="9" type="curve"/>
      <point x="307" y="9" type="line"/>
      <point x="297" y="-38"/>
      <point x="286" y="-86"/>
    </contour>
    <contour>
      <point x="449" y="675" type="curve"/>
      <point x="479" y="675" type="line"/>
      <point x="488" y="717"/>
      <point x="498" y="759"/>
      <point x="508" y="803" type="curve"/>
      <point x="474" y="803" type="line"/>
      <point x="465" y="759"/>
      <point x="458" y="717"/>
    </contour>
  </outline>
</glyph>
<glyph name="hookabovecomb.case" format="2">
  <anchor x="352" y="494" name="_top"/>
  <anchor x="397" y="713" name="top"/>
  <outline>
    <contour>
      <point x="348" y="576" type="line"/>
      <point x="378" y="576" type="line"/>
      <point x="386" y="611" type="line"/>
      <point x="430" y="616"/>
      <point x="478" y="638"/>
      <point x="490" y="691" type="curve" smooth="yes"/>
      <point x="501" y="741"/>
      <point x="465" y="776"/>
      <point x="414" y="776" type="curve" smooth="yes"/>
      <point x="386" y="776"/>
      <point x="345" y="764"/>
      <point x="319" y="753" type="curve"/>
      <point x="314" y="719" type="line"/>
      <point x="354" y="738"/>
      <point x="391" y="745"/>
      <point x="411" y="745" type="curve"/>
      <point x="447" y="744"/>
      <point x="468" y="728"/>
      <point x="461" y="695" type="curve" smooth="yes"/>
      <point x="454" y="661"/>
      <point x="418" y="636"/>
      <point x="359" y="629" type="curve"/>
    </contour>
  </outline>
</glyph>
<glyph name="naira.BRACKET.140" format="2">
  <advance width="785"/>
  <outline>
    <contour>
      <point x="82" y="0" type="curve"/>
      <point x="118" y="0" type="line"/>
      <point x="132" y="80"/>
      <point x="146" y="145"/>
      <point x="164" y="230" type="curve"/>
      <point x="250" y="633" type="line"/>
      <point x="254" y="633" type="line"/>
      <point x="376" y="384" type="line"/>
      <point x="450" y="233"/>
      <point x="510" y="110"/>
      <point x="561" y="0" type="curve"/>
      <point x="598" y="0" type="line"/>
      <point x="612" y="79"/>
      <point x="626" y="145"/>
      <point x="644" y="229" type="curve"/>
      <point x="692" y="455" type="line"/>
      <point x="710" y="539"/>
      <point x="725" y="610"/>
      <point x="744" y="684" type="curve"/>
      <point x="708" y="684" type="line"/>
      <point x="694" y="609"/>
      <point x="679" y="538"/>
      <point x="661" y="454" type="curve"/>
      <point x="576" y="54" type="line"/>
      <point x="572" y="54" type="line"/>
      <point x="449" y="305" type="line"/>
      <point x="390" y="425"/>
      <point x="328" y="552"/>
      <point x="265" y="684" type="curve"/>
      <point x="228" y="684" type="line"/>
      <point x="214" y="609"/>
      <point x="199" y="539"/>
      <point x="181" y="455" type="curve"/>
      <point x="133" y="229" type="line"/>
      <point x="115" y="145"/>
      <point x="101" y="79"/>
    </contour>
    <contour>
      <point x="57" y="338" type="line"/>
      <point x="97" y="339"/>
      <point x="136" y="340"/>
      <point x="171" y="340" type="curve"/>
      <point x="177" y="368" type="line"/>
      <point x="142" y="368"/>
      <point x="103" y="369"/>
      <point x="64" y="370" type="curve"/>
    </contour>
    <contour>
      <point x="654" y="340" type="line"/>
      <point x="689" y="340"/>
      <point x="727" y="339"/>
      <point x="766" y="338" type="curve"/>
      <point x="773" y="370" type="line"/>
      <point x="733" y="369"/>
      <point x="695" y="368"/>
      <point x="660" y="368" type="curve"/>
    </contour>
  </outline>
</glyph>
<glyph name="ogonekcomb.a" format="2">
  <anchor x="247" y="0" name="_ogonek"/>
  <outline>
    <contour>
      <point x="192" y="-200" type="curve" smooth="yes"/>
      <point x="206" y="-200"/>
      <point x="229" y="-197"/>
      <point x="241" y="-195" type="curve"/>
      <point x="247" y="-163" type="line"/>
      <point x="235" y="-167"/>
      <point x="210" y="-171"/>
      <point x="193" y="-171" type="curve" smooth="yes"/>
      <point x="158" y="-171"/>
      <point x="138" y="-155"/>
      <point x="145" y="-122" type="curve" smooth="yes"/>
      <point x="155" y="-77"/>
      <point x="213" y="-31"/>
      <point x="277" y="0" type="curve"/>
      <point x="263" y="21" type="line"/>
      <point x="254" y="21" type="line"/>
      <point x="252" y="10" type="line"/>
      <point x="163" y="-37"/>
      <point x="124" y="-71"/>
      <point x="114" y="-118" type="curve" smooth="yes"/>
      <point x="104" y="-164"/>
      <point x="134" y="-200"/>
    </contour>
  </outline>
</glyph>
<glyph name="peseta.BRACKET.140" format="2">
  <advance width="701"/>
  <outline>
    <contour>
      <point x="173" y="298" type="line"/>
      <point x="211" y="298"/>
      <point x="295" y="297"/>
      <point x="343" y="297" type="curve"/>
      <point x="541" y="297"/>
      <point x="591" y="369"/>
      <point x="616" y="485" type="curve" smooth="yes"/>
      <point x="641" y="602"/>
      <point x="576" y="685"/>
      <point x="431" y="685" type="curve"/>
      <point x="338" y="685"/>
      <point x="278" y="684"/>
      <point x="228" y="684" type="curve"/>
      <point x="243" y="654" type="line"/>
      <point x="427" y="654" type="line" smooth="yes"/>
      <point x="513" y="654"/>
      <point x="613" y="627"/>
      <point x="584" y="489" type="curve" smooth="yes"/>
      <point x="555" y="351"/>
      <point x="482" y="328"/>
      <point x="346" y="328" type="curve" smooth="yes"/>
      <point x="180" y="328" type="line"/>
    </contour>
    <contour>
      <point x="82" y="0" type="curve"/>
      <point x="118" y="0" type="line"/>
      <point x="132" y="80"/>
      <point x="146" y="145"/>
      <point x="164" y="230" type="curve"/>
      <point x="211" y="452" type="line"/>
      <point x="230" y="540"/>
      <point x="244" y="606"/>
      <point x="262" y="682" type="curve"/>
      <point x="228" y="684" type="line"/>
      <point x="214" y="609"/>
      <point x="199" y="539"/>
      <point x="181" y="455" type="curve"/>
      <point x="133" y="229" type="line"/>
      <point x="115" y="145"/>
      <point x="101" y="79"/>
    </contour>
    <contour>
      <point x="88" y="485" type="line"/>
      <point x="128" y="486"/>
      <point x="167" y="487"/>
      <point x="202" y="487" type="curve"/>
      <point x="208" y="515" type="line"/>
      <point x="173" y="515"/>
      <point x="134" y="516"/>
      <point x="95" y="517" type="curve"/>
    </contour>
    <contour>
      <point x="601" y="486" type="line"/>
      <point x="636" y="486"/>
      <point x="674" y="485"/>
      <point x="713" y="484" type="curve"/>
      <point x="720" y="516" type="line"/>
      <point x="680" y="515"/>
      <point x="642" y="514"/>
      <point x="607" y="514" type="curve"/>
    </contour>
  </outline>
</glyph>
<glyph name="six.dnom" format="2">
  <advance width="431"/>
  <outline>
    <contour>
      <point x="191" y="-6" type="curve" smooth="yes"/>
      <point x="291" y="-6"/>
      <point x="348" y="55"/>
      <point x="364" y="134" type="curve" smooth="yes"/>
      <point x="380" y="214"/>
      <point x="334" y="293"/>
      <point x="232" y="293" type="curve" smooth="yes"/>
      <point x="168" y="293"/>
      <point x="118" y="264"/>
      <point x="84" y="236" type="curve"/>
      <point x="75" y="237" type="line"/>
      <point x="68" y="224"/>
      <point x="66" y="210"/>
      <point x="67" y="195" type="curve"/>
      <point x="113" y="241"/>
      <point x="176" y="262"/>
      <point x="228" y="263" type="curve"/>
      <point x="319" y="262"/>
      <point x="347" y="198"/>
      <point x="334" y="138" type="curve" smooth="yes"/>
      <point x="321" y="77"/>
      <point x="278" y="25"/>
      <point x="191" y="24" type="curve"/>
      <point x="89" y="25"/>
      <point x="50" y="103"/>
      <point x="77" y="231" type="curve" smooth="yes"/>
      <point x="107" y="371"/>
      <point x="165" y="436"/>
      <point x="268" y="437" type="curve"/>
      <point x="303" y="437"/>
      <point x="343" y="422"/>
      <point x="385" y="399" type="curve"/>
      <point x="396" y="432" type="line"/>
      <point x="366" y="444"/>
      <point x="320" y="467"/>
      <point x="267" y="467" type="curve" smooth="yes"/>
      <point x="150" y="467"/>
      <point x="79" y="391"/>
      <point x="46" y="233" type="curve" smooth="yes"/>
      <point x="15" y="86"/>
      <point x="76" y="-6"/>
    </contour>
  </outline>
</glyph>
<glyph name="three.dnom" format="2">
  <advance width="403"/>
  <outline>
    <contour>
      <point x="156" y="-6" type="curve" smooth="yes"/>
      <point x="259" y="-6"/>
      <point x="315" y="35"/>
      <point x="329" y="104" type="curve" smooth="yes"/>
      <point x="345" y="181"/>
      <point x="290" y="227"/>
      <point x="246" y="239" type="curve"/>
      <point x="247" y="243" type="line"/>
      <point x="303" y="253"/>
      <point x="348" y="284"/>
      <point x="360" y="337" type="curve" smooth="yes"/>
      <point x="376" y="409"/>
      <point x="322" y="467"/>
      <point x="234" y="467" type="curve" smooth="yes"/>
      <point x="190" y="467"/>
      <point x="123" y="440"/>
      <point x="86" y="426" type="curve"/>
      <point x="85" y="388" type="line"/>
      <point x="149" y="422"/>
      <point x="208" y="437"/>
      <point x="232" y="437" type="curve"/>
      <point x="305" y="436"/>
      <point x="341" y="400"/>
      <point x="329" y="341" type="curve" smooth="yes"/>
      <point x="318" y="285"/>
      <point x="267" y="257"/>
      <point x="164" y="256" type="curve"/>
      <point x="152" y="256"/>
      <point x="139" y="256"/>
      <point x="127" y="257" type="curve"/>
      <point x="121" y="226" type="line"/>
      <point x="133" y="227"/>
      <point x="146" y="227"/>
      <point x="159" y="227" type="curve"/>
      <point x="262" y="226"/>
      <point x="314" y="181"/>
      <point x="299" y="111" type="curve" smooth="yes"/>
      <point x="287" y="55"/>
      <point x="249" y="26"/>
      <point x="155" y="24" type="curve"/>
      <point x="110" y="24"/>
      <point x="59" y="44"/>
      <point x="5" y="72" type="curve"/>
      <point x="-7" y="40" type="line"/>
      <point x="31" y="24"/>
      <point x="90" y="-6"/>
    </contour>
  </outline>
</glyph>
<glyph name="tildecomb.case" format="2">
  <anchor x="352" y="494" name="_top"/>
  <anchor x="388" y="665" name="top"/>
  <outline>
    <contour>
      <point x="458" y="578" type="curve" smooth="yes"/>
      <point x="510" y="578"/>
      <point x="545" y="617"/>
      <point x="557" y="689" type="curve"/>
      <point x="529" y="689" type="line"/>
      <point x="516" y="633"/>
      <point x="497" y="611"/>
      <point x="460" y="609" type="curve"/>
      <point x="400" y="611"/>
      <point x="379" y="702"/>
      <point x="307" y="702" type="curve" smooth="yes"/>
      <point x="255" y="702"/>
      <point x="221" y="663"/>
      <point x="208" y="591" type="curve"/>
      <point x="236" y="591" type="line"/>
      <point x="248" y="647"/>
      <point x="269" y="669"/>
      <point x="306" y="671" type="curve"/>
      <point x="365" y="669"/>
      <point x="386" y="578"/>
    </contour>
  </outline>
</glyph>
<glyph name="tildecomb.narrow" format="2">
  <anchor x="352" y="494" name="_top"/>
  <anchor x="390" y="675" name="top"/>
  <outline>
    <contour>
      <point x="452" y="588" type="curve" smooth="yes"/>
      <point x="498" y="588"/>
      <point x="532" y="627"/>
      <point x="544" y="699" type="curve"/>
      <point x="518" y="699" type="line"/>
      <point x="505" y="643"/>
      <point x="486" y="621"/>
      <point x="454" y="619" type="curve"/>
      <point x="401" y="621"/>
      <point x="383" y="712"/>
      <point x="318" y="712" type="curve" smooth="yes"/>
      <point x="271" y="712"/>
      <point x="239" y="673"/>
      <point x="226" y="601" type="curve"/>
      <point x="252" y="601" type="line"/>
      <point x="265" y="658"/>
      <point x="284" y="679"/>
      <point x="317" y="681" type="curve"/>
      <point x="369" y="679"/>
      <point x="387" y="588"/>
    </contour>
  </outline>
</glyph>
